<svg xmlns="http://www.w3.org/2000/svg" width="24" height="24" fill="none" viewBox="0 0 24 24">
  <path fill="#000" d="M15.827 2.761A10 10 0 0 0 12 2v2a8 8 0 1 1 0 16v2a10 10 0 0 0 3.827-19.239Z"/>
  <path fill="#000" d="M13 8h-2v3H8v2h3v3h2v-3h3v-2h-3V8Zm-7.608 8.51a8 8 0 0 0 4.876 3.3l-.432 1.953-.005-.001a10.003 10.003 0 0 1-6.092-4.127l1.652-1.127v.001Zm-.809-1.513a8 8 0 0 1-.346-4.931l-1.94-.485a10.005 10.005 0 0 0 .43 6.164l.001.001 1.855-.75ZM7.08 5.691a8 8 0 0 0-2.24 2.74l-1.79-.893a10.007 10.007 0 0 1 2.801-3.424l1.23 1.577Zm1.476-.911a8 8 0 0 1 1.657-.578l-.445-1.95a10.003 10.003 0 0 0-2.073.722l.86 1.805Z"/>
</svg>
