<svg xmlns="http://www.w3.org/2000/svg" width="24" height="24" fill="none" viewBox="0 0 24 24">
  <path fill="#000" d="M12 22a8.727 8.727 0 0 1-3.513-.712 9.149 9.149 0 0 1-2.85-1.925 9.15 9.15 0 0 1-1.925-2.85A8.707 8.707 0 0 1 3 13c0-1.25.237-2.42.712-3.513a9.148 9.148 0 0 1 1.925-2.85 9.148 9.148 0 0 1 2.85-1.925A8.707 8.707 0 0 1 12 4c1.25 0 2.42.237 3.512.712a9.147 9.147 0 0 1 2.85 1.925 9.149 9.149 0 0 1 1.925 2.85A8.707 8.707 0 0 1 21 13c0 1.25-.238 2.42-.713 3.512a9.15 9.15 0 0 1-1.925 2.85 9.148 9.148 0 0 1-2.85 1.926A8.707 8.707 0 0 1 12 22Zm2.8-4.8 1.4-1.4-3.2-3.2V8h-2v5.4l3.8 3.8ZM5.6 2.35 7 3.75 2.75 8l-1.4-1.4L5.6 2.35Zm12.8 0 4.25 4.25-1.4 1.4L17 3.75l1.4-1.4ZM12 20c1.95 0 3.604-.68 4.962-2.038C18.32 16.604 19 14.95 19 13c0-1.95-.68-3.604-2.038-4.963C15.604 6.68 13.95 6 12 6c-1.95 0-3.605.68-4.963 2.037C5.68 9.396 5 11.05 5 13c0 1.95.679 3.604 2.037 4.962C8.395 19.322 10.05 20 12 20Z"/>
</svg>
