<svg xmlns="http://www.w3.org/2000/svg" width="24" height="24" fill="none" viewBox="0 0 24 24">
  <path fill="#000" fill-rule="evenodd" d="M19 5a3 3 0 0 1 2.995 2.824L22 8v7a3 3 0 0 1-2.824 2.995L19 18h-2.207l1.121 1.121-1.414 1.415L12.964 17l3.536-3.536 1.414 1.415-1.122 1.12L19 16a1 1 0 0 0 .993-.883L20 15V8a1 1 0 0 0-.883-.993L19 7h-6V5h6ZM7.464 2.464 11 6 7.464 9.536 6.05 8.12 7.17 7H5a1 1 0 0 0-.993.883L4 8v7a1 1 0 0 0 .883.993L5 16h6v2H5a3 3 0 0 1-2.995-2.824L2 15V8a3 3 0 0 1 2.824-2.995L5 5h2.172L6.05 3.878l1.414-1.415Z" clip-rule="evenodd"/>
</svg>
