<svg width="24" height="24" viewBox="0 0 24 24" fill="none" xmlns="http://www.w3.org/2000/svg">
<g clip-path="url(#clip0_24_663)">
<path d="M4 12L1 12L5 16L9 12H6C6 8.69 8.69 6 12 6C13.01 6 13.97 6.25 14.8 6.7L16.26 5.24C15.03 4.46 13.57 4 12 4C7.58 4 4 7.58 4 12Z" fill="black"/>
<path d="M18 12C18 15.31 15.31 18 12 18C10.99 18 10.03 17.75 9.2 17.3L7.74 18.76C8.97 19.54 10.43 20 12 20C16.42 20 20 16.42 20 12H23L19 8L15 12L18 12Z" fill="black"/>
</g>
<defs>
<clipPath id="clip0_24_663">
<rect width="24" height="24" fill="white"/>
</clipPath>
</defs>
</svg>
