<svg xmlns="http://www.w3.org/2000/svg" width="24" height="24" fill="none" viewBox="0 0 24 24">
  <path fill="#000" fill-rule="evenodd" d="M17.7 8a1.3 1.3 0 0 1 1.293 1.167L19 9.3v9.4a1.3 1.3 0 0 1-1.167 1.293L17.7 20H2.3a1.3 1.3 0 0 1-1.293-1.167L1 18.7V9.3a1.3 1.3 0 0 1 1.167-1.293L2.3 8h15.4ZM10 11.75a2.25 2.25 0 1 0 0 4.5 2.25 2.25 0 0 0 0-4.5ZM10 13a1 1 0 1 1 0 2 1 1 0 0 1 0-2Zm5.5 0a1 1 0 1 0 0 2 1 1 0 0 0 0-2Zm-11 0a1 1 0 1 0 0 2 1 1 0 0 0 0-2ZM21 4a2 2 0 0 1 1.995 1.85L23 6v9a1 1 0 0 1-2 0V7a1 1 0 0 0-1-1H6a1 1 0 0 1 0-2h15Z" clip-rule="evenodd"/>
</svg>
