<svg xmlns="http://www.w3.org/2000/svg" width="24" height="24" fill="none" viewBox="0 0 24 24">
  <path fill="#000" d="M23.111 14a.879.879 0 0 0 .629-.266.92.92 0 0 0 0-1.286.879.879 0 0 0-.629-.266h-1.955V8.909a.92.92 0 0 0-.26-.643.879.879 0 0 0-1.258 0 .92.92 0 0 0-.26.643v4c0 .603.477 1.091 1.066 1.091h2.667Zm-20.891.91h3.647v-1.82H2.222a.44.44 0 0 1-.314-.132.46.46 0 0 1 0-.643.44.44 0 0 1 .314-.133h6.49a1.08 1.08 0 0 0 1.066-1.091V8.909a.92.92 0 0 0-.26-.643.879.879 0 0 0-1.258 0A.92.92 0 0 0 8 8.91v1.455H2.222a2.2 2.2 0 0 0-1.571.665A2.3 2.3 0 0 0 0 12.636a2.3 2.3 0 0 0 .65 1.607c.418.427.983.666 1.572.666h-.001Zm13.247-6a.92.92 0 0 0-.26-.644.879.879 0 0 0-1.258 0 .92.92 0 0 0-.26.643V14h1.778V8.91ZM17.422 16a.879.879 0 0 0 .629-.266.92.92 0 0 0 .26-.643v-4.727h-1.778v4.727a.92.92 0 0 0 .26.643c.167.17.393.266.63.266Zm-4.8-.91v-4.726h-1.778v4.727a.92.92 0 0 0 .26.643.879.879 0 0 0 1.258 0 .92.92 0 0 0 .26-.643Zm4.78-5.62a.72.72 0 0 0 .711-.727.72.72 0 0 0-.711-.727.72.72 0 0 0-.711.727.72.72 0 0 0 .711.728ZM20.267 16a.72.72 0 0 0 .71-.727.72.72 0 0 0-.71-.727.72.72 0 0 0-.712.727.72.72 0 0 0 .712.727Z"/>
  <path fill="#000" d="M6.933 13.09v1.456h1.423v.727a.72.72 0 0 0 .71.727.72.72 0 0 0 .712-.727v-1.455a.72.72 0 0 0-.711-.727H6.933Z"/>
</svg>
