<svg xmlns="http://www.w3.org/2000/svg" width="24" height="24" fill="none" viewBox="0 0 24 24">
  <path fill="#000" fill-rule="evenodd" d="M13 1v2.083c2.838.476 5 2.944 5 5.917v3.171a3.002 3.002 0 0 1 1.994 2.635L20 15v4l-5.171.001A2.995 2.995 0 0 1 12 21a2.995 2.995 0 0 1-2.829-1.999L4 19v-4c0-1.306.835-2.418 2-2.83V9a6.002 6.002 0 0 1 5-5.917V1h2Zm4 13H7a1 1 0 0 0-.993.883L6 15v2h12v-2a1 1 0 0 0-.77-.974l-.113-.02L17 14Zm-5-9a4 4 0 0 0-3.995 3.8L8 9v3h8V9a4 4 0 0 0-3.8-3.995L12 5Z" clip-rule="evenodd"/>
</svg>
