<svg xmlns="http://www.w3.org/2000/svg" width="24" height="24" fill="none" viewBox="0 0 24 24">
  <path fill="#000" fill-rule="evenodd" d="M22 15.945c0 .104-.008.206-.023.307l-9.61-8.537 5.907-3.123 2.61 1.287A2 2 0 0 1 22 7.673v8.272ZM3.863 5.51 1.688 3.577l1.34-1.484 19.913 17.69-1.34 1.484-2.746-2.439-5.91 3.166a2 2 0 0 1-1.89 0l-8-4.286A2 2 0 0 1 2 15.945V7.673a2 2 0 0 1 1.116-1.794l.747-.369ZM6.23 7.613l-.9.457v4.774c0 .2.12.381.304.46l2.295.98a.5.5 0 0 0 .696-.46V9.74L6.23 7.613Zm8.953-4.544-5.12 2.599L7.737 3.6l3.379-1.665a2 2 0 0 1 1.768 0l2.3 1.133Z" clip-rule="evenodd"/>
</svg>
