<svg xmlns="http://www.w3.org/2000/svg" width="24" height="24" fill="none" viewBox="0 0 24 24">
  <path fill="#000" d="M18 4h1a3 3 0 0 1 3 3v1H2V7a3 3 0 0 1 3-3h1V3a1 1 0 0 1 2 0v1h8V3a1 1 0 0 1 2 0v1Z"/>
  <path fill="#000" fill-rule="evenodd" d="M2 10h20v9a3 3 0 0 1-3 3H5a3 3 0 0 1-3-3v-9Zm9 3a1.001 1.001 0 1 1 2.002.002A1.001 1.001 0 0 1 11 13Zm5 0a1.002 1.002 0 1 0 2.004 0A1.002 1.002 0 0 0 16 13Zm-5 4a1.001 1.001 0 1 1 2.002.002A1.001 1.001 0 0 1 11 17Zm5 0a1.001 1.001 0 1 1 2.002.002A1.001 1.001 0 0 1 16 17ZM6 13a1.002 1.002 0 1 0 2.004 0A1.002 1.002 0 0 0 6 13Zm0 4a1.001 1.001 0 1 1 2.002.002A1.001 1.001 0 0 1 6 17Z" clip-rule="evenodd"/>
</svg>
