<svg xmlns="http://www.w3.org/2000/svg" width="24" height="24" fill="none" viewBox="0 0 24 24">
  <path fill="#000" d="M12 14a1 1 0 1 0 0-2 1 1 0 0 0 0 2Zm5 0a1 1 0 1 0 0-2 1 1 0 0 0 0 2Zm-5 4a1 1 0 1 0 0-2 1 1 0 0 0 0 2Zm5 0a1 1 0 1 0 0-2 1 1 0 0 0 0 2ZM7 14a1 1 0 1 0 0-2 1 1 0 0 0 0 2ZM19 4h-1V3a1 1 0 0 0-2 0v1H8V3a1 1 0 0 0-2 0v1H5a3 3 0 0 0-3 3v12a3 3 0 0 0 3 3h14a3 3 0 0 0 3-3V7a3 3 0 0 0-3-3Zm1 15a1 1 0 0 1-1 1H5a1 1 0 0 1-1-1v-9h16v9Zm0-11H4V7a1 1 0 0 1 1-1h14a1 1 0 0 1 1 1v1ZM7 18a1 1 0 1 0 0-2 1 1 0 0 0 0 2Z"/>
</svg>
