<svg xmlns="http://www.w3.org/2000/svg" width="24" height="24" fill="none" viewBox="0 0 24 24">
  <path fill="#000" fill-rule="evenodd" d="M16.5 1C13.75 1 11 2.8 11 2.8v6.558C11 11.9 14.307 14.35 16.5 15c2.18-.65 5.5-3.1 5.5-5.642V2.8S19.25 1 16.5 1Zm-3.162 7 2.433 2.301 3.878-3.679-.97-.917-2.915 2.756-1.457-1.378-.97.917Z" clip-rule="evenodd"/>
  <path fill="#000" d="M14.731 17.163c1.048.34 2.172.53 3.334.53.51 0 .935.424.935.934v3.259c0 .519-.264 1.114-.935 1.114C9.301 23 2 15.709 2 6.935 2 6.227 2.614 6 3.124 6h3.268c.51 0 .935.425.935.935 0 1.162.18 2.286.529 3.334a.964.964 0 0 1-.227.963L5.787 12.8c1.332 2.767 3.835 5.176 6.507 6.45l1.483-1.86a.923.923 0 0 1 .954-.227Z"/>
</svg>
