<svg xmlns="http://www.w3.org/2000/svg" width="24" height="24" fill="none" viewBox="0 0 24 24">
  <path fill="#000" d="M9.269 17.163c-1.048.34-2.172.53-3.334.53a.943.943 0 0 0-.935.934v3.259c0 .519.264 1.114.935 1.114C14.699 23 22 15.709 22 6.935 22 6.227 21.386 6 20.876 6h-3.268a.943.943 0 0 0-.935.935c0 1.162-.18 2.286-.529 3.334a.964.964 0 0 0 .227.963l1.842 1.568c-1.332 2.767-3.835 5.176-6.507 6.45l-1.483-1.86a.923.923 0 0 0-.954-.227Z"/>
  <path fill="#000" d="M7.5 1C4.75 1 2 2.8 2 2.8v6.558C2 11.9 5.307 14.35 7.5 15c2.18-.65 5.5-3.1 5.5-5.642V2.8S10.25 1 7.5 1Zm-.729 9.301L4.338 8l.969-.917 1.457 1.378L9.68 5.705l.97.917-3.878 3.679Z"/>
</svg>
