<svg xmlns="http://www.w3.org/2000/svg" width="24" height="24" fill="none" viewBox="0 0 24 24">
  <path fill="#000" d="M13.5 2A1.5 1.5 0 0 0 12 3.5V13l3-3h5.5A1.5 1.5 0 0 0 22 8.5v-5A1.5 1.5 0 0 0 20.5 2h-7Z"/>
  <path fill="#000" d="M15.48 15.82c1.11.36 2.3.56 3.53.56.54 0 .99.45.99.99v3.45c0 .55-.28 1.18-.99 1.18C9.73 22 2 14.28 2 4.99 2 4.24 2.65 4 3.19 4h3.46c.54 0 .99.45.99.99 0 1.23.19 2.42.56 3.53.11.35.03.74-.24 1.02L6.01 11.2c1.41 2.93 4.06 5.48 6.89 6.83l1.57-1.97c.27-.27.66-.36 1.01-.24Z"/>
</svg>
