<svg xmlns="http://www.w3.org/2000/svg" width="24" height="24" fill="none" viewBox="0 0 24 24">
  <path fill="#000" fill-rule="evenodd" d="m3.065 4.696 16.5 17L21 20.303l-16.5-17-1.435 1.393Z" clip-rule="evenodd"/>
  <path fill="#000" d="M5.302 14.82c-1.11.36-2.3.56-3.53.56-.54 0-.99.45-.99.99v3.45c0 .55.28 1.18.99 1.18 4.009 0 7.728-1.44 10.66-3.825l-1.817-1.866a14.374 14.374 0 0 1-2.733 1.721l-1.57-1.97a.977.977 0 0 0-1.01-.24Zm6.798-.853c1.088-1.118 2.015-2.401 2.672-3.767l-1.95-1.66a1.02 1.02 0 0 1-.24-1.02c.37-1.11.56-2.3.56-3.53 0-.54.45-.99.99-.99h3.46c.54 0 1.19.24 1.19.99 0 4.569-1.869 8.758-4.873 11.835l-1.81-1.858Z"/>
</svg>
