<svg xmlns="http://www.w3.org/2000/svg" width="24" height="24" fill="none" viewBox="0 0 24 24">
  <path fill="#000" fill-rule="evenodd" d="m18.717 4.696-16.5 17-1.435-1.393 16.5-17 1.435 1.393Z" clip-rule="evenodd"/>
  <path fill="#000" d="M16.48 14.82c1.11.36 2.3.56 3.53.56.54 0 .99.45.99.99v3.45c0 .55-.28 1.18-.99 1.18-4.009 0-7.728-1.44-10.66-3.825l1.817-1.866c.865.687 1.789 1.27 2.733 1.721l1.57-1.97c.27-.27.66-.36 1.01-.24Zm-6.797-.853c-1.09-1.118-2.016-2.401-2.673-3.767l1.95-1.66c.27-.28.35-.67.24-1.02-.37-1.11-.56-2.3-.56-3.53 0-.54-.45-.99-.99-.99H4.19C3.65 3 3 3.24 3 3.99c0 4.569 1.87 8.758 4.873 11.835l1.81-1.858Z"/>
</svg>
