<svg xmlns="http://www.w3.org/2000/svg" width="24" height="24" fill="none" viewBox="0 0 24 24">
  <path fill="#000" fill-rule="evenodd" d="M4 21c-.55 0-1.02-.196-1.413-.587A1.926 1.926 0 0 1 2 19V7c0-.55.196-1.02.587-1.412A1.926 1.926 0 0 1 4 5h3.15L8.4 3.65c.183-.217.404-.38.662-.487A2.08 2.08 0 0 1 9.876 3h4.25c.283 0 .554.054.813.163.258.108.479.27.662.487L16.85 5H20c.55 0 1.02.196 1.413.588.391.391.587.862.587 1.412v12c0 .55-.196 1.02-.587 1.413A1.926 1.926 0 0 1 20 21H4Zm11.188-4.813C14.312 17.063 13.25 17.5 12 17.5c-1.25 0-2.313-.438-3.188-1.313C7.939 15.313 7.5 14.25 7.5 13c0-1.25.438-2.313 1.313-3.188C9.687 8.938 10.75 8.5 12 8.5c1.25 0 2.313.438 3.188 1.313.874.874 1.312 1.937 1.312 3.187 0 1.25-.438 2.313-1.313 3.188Z" clip-rule="evenodd"/>
  <path fill="#000" d="M10.225 14.775c.483.483 1.075.725 1.775.725s1.292-.242 1.775-.725c.483-.483.725-1.075.725-1.775s-.242-1.292-.725-1.775C13.292 10.742 12.7 10.5 12 10.5s-1.292.242-1.775.725C9.742 11.708 9.5 12.3 9.5 13s.242 1.292.725 1.775Z"/>
</svg>
