<svg xmlns="http://www.w3.org/2000/svg" width="24" height="24" fill="none" viewBox="0 0 24 24">
  <path fill="#000" d="M11 18.5c1.25 0 2.313-.438 3.188-1.313.874-.875 1.312-1.937 1.312-3.187 0-1.25-.438-2.313-1.313-3.188C13.313 9.938 12.25 9.5 11 9.5c-1.25 0-2.313.438-3.188 1.313C6.938 11.687 6.5 12.75 6.5 14c0 1.25.438 2.313 1.313 3.188S9.75 18.5 11 18.5ZM3 22c-.55 0-1.02-.196-1.413-.587A1.926 1.926 0 0 1 1 20V8c0-.55.196-1.02.587-1.412A1.926 1.926 0 0 1 3 6h3.15L7.4 4.65A2.011 2.011 0 0 1 8.875 4H13c.283 0 .52.096.713.287.191.192.287.43.287.713v3H3v12h16v-9h1c.133 0 .262.025.387.075a.956.956 0 0 1 .538.538c.05.125.075.254.075.387v8c0 .55-.196 1.02-.587 1.413A1.926 1.926 0 0 1 19 22H3ZM19 6h-1a.968.968 0 0 1-.712-.287A.967.967 0 0 1 17 5a.97.97 0 0 1 .288-.713A.968.968 0 0 1 18 4h1V3c0-.283.096-.52.288-.712A.968.968 0 0 1 20 2c.283 0 .52.096.712.288A.965.965 0 0 1 21 3v1h1a.97.97 0 0 1 .712.287c.192.192.288.43.288.713s-.096.52-.288.713A.968.968 0 0 1 22 6h-1v1a.97.97 0 0 1-.288.713A.968.968 0 0 1 20 8a.968.968 0 0 1-.712-.287A.967.967 0 0 1 19 7V6Z"/>
</svg>
