<svg xmlns="http://www.w3.org/2000/svg" width="24" height="24" fill="none" viewBox="0 0 24 24">
  <path fill="#000" fill-rule="evenodd" d="M16.18 4a3 3 0 0 1 2.914 2.286l.075.305a7.556 7.556 0 0 0-2.197-.021.983.983 0 0 0-.773-.564L16.087 6H7.942a.982.982 0 0 0-.911.633l-.038.117L6.5 8.685c1.964.226 3.938.33 5.911.313A7.472 7.472 0 0 0 10.5 14c0 1.92.722 3.673 1.91 5H6.99a2 2 0 0 0-2 2H2v-7.341a6 6 0 0 1 .988-3.299l.098-.14a51.977 51.977 0 0 1-1.282-.24l.392-1.96c.728.145 1.458.274 2.19.387l.036-.075.04-.119.514-1.97A3 3 0 0 1 7.878 4h8.302ZM9 13H6v2h3v-2Z" clip-rule="evenodd"/>
  <path fill="#000" fill-rule="evenodd" d="M22.24 9.757a6 6 0 1 0-8.486 8.485 6 6 0 0 0 8.485-8.485ZM18.496 13.5V11h-1.5v4h4v-1.5h-2.5Z" clip-rule="evenodd"/>
</svg>
