<svg xmlns="http://www.w3.org/2000/svg" width="24" height="24" fill="none" viewBox="0 0 24 24">
  <path fill="#000" fill-rule="evenodd" d="M3.515 3.1 21.9 21.485l-1.414 1.414-3.9-3.9L7.992 19v1h-2v-1a2 2 0 0 1 1.851-1.995l.15-.005h6.594l-6.132-6.13a52.007 52.007 0 0 1-3.142-.312l-.542.741a4 4 0 0 0-.762 2.106L4 13.66V20H2v-6.341a6 6 0 0 1 .988-3.299l.098-.14-.56-.1-.722-.14.392-1.96c.728.145 1.46.274 2.192.387l.035-.075.04-.119.275-1.06L2.1 4.515 3.515 3.1ZM16.18 4a3 3 0 0 1 2.866 2.114l.048.172.518 2.121c.492-.076.982-.16 1.471-.25l.72-.138.392 1.962-.66.127-.66.119.057.076a6 6 0 0 1 1.06 3.135l.007.281v5.039l-2-2v-3.039a4 4 0 0 0-.683-2.235l-.139-.194-.553-.724c-1.474.19-2.955.316-4.44.378L12.23 8.99c1.8-.009 3.6-.114 5.39-.317l-.468-1.91a1 1 0 0 0-.858-.757L16.181 6h-6.94L7.298 4.056c.132-.026.267-.043.403-.05L7.88 4h8.302-.002ZM9 13v2H6v-2h3Zm9 0v1.758L16.242 13H18Z" clip-rule="evenodd"/>
</svg>
