<svg xmlns="http://www.w3.org/2000/svg" width="24" height="24" fill="none" viewBox="0 0 24 24">
  <path fill="#000" fill-rule="evenodd" d="M18 20a6 6 0 1 0 0-12 6 6 0 0 0 0 12Zm1.254-4.75L18 18l-1.27-2.75L14 13.993l2.73-1.257L17.998 10l1.255 2.736 2.743 1.257-2.743 1.257Z" clip-rule="evenodd"/>
  <path fill="#000" fill-rule="evenodd" d="M19.094 6.286A3 3 0 0 0 16.18 4H7.878a3 3 0 0 0-2.902 2.243l-.514 1.97-.04.119-.035.075a49.992 49.992 0 0 1-2.191-.388l-.392 1.962c.426.085.854.165 1.282.24l-.098.14A6 6 0 0 0 2 13.658V21h2.99c.001-1.104.897-2 2.001-2h5.418a7.472 7.472 0 0 1-1.909-5c0-1.922.723-3.675 1.911-5.002A47.967 47.967 0 0 1 6.5 8.685l.493-1.935.038-.117A.982.982 0 0 1 7.942 6h8.145l.112.006c.337.04.628.255.773.564a7.569 7.569 0 0 1 2.197.02l-.075-.304ZM6 13h3v2H6v-2Z" clip-rule="evenodd"/>
</svg>
