<svg xmlns="http://www.w3.org/2000/svg" width="24" height="24" fill="none" viewBox="0 0 24 24">
  <path fill="#000" fill-rule="evenodd" d="M16.18 4a3 3 0 0 1 2.914 2.286l.519 2.121a49.993 49.993 0 0 0 2.19-.388l.393 1.962c-.44.087-.88.17-1.32.246A5.981 5.981 0 0 1 22 13.719V21h-2.882a2 2 0 0 0-2-2H6.992a2 2 0 0 0-2 2H2v-7.341a6 6 0 0 1 .988-3.299l.098-.14a51.977 51.977 0 0 1-1.282-.24l.392-1.96c.728.145 1.458.274 2.19.387l.036-.075.04-.119.514-1.97A3 3 0 0 1 7.878 4h8.302ZM9 13H6v2h3v-2Zm9 0h-3v2h3v-2Zm-1.913-7H7.942a.982.982 0 0 0-.911.633l-.038.117L6.5 8.685c3.655.421 7.345.42 11-.003l-.46-1.917a.989.989 0 0 0-.841-.759L16.087 6Z" clip-rule="evenodd"/>
</svg>
