<svg xmlns="http://www.w3.org/2000/svg" width="24" height="24" fill="none" viewBox="0 0 24 24">
  <path fill="#000" fill-rule="evenodd" d="m16.793 19 3.825 3.26 1.34-1.485L2.045 3.085.705 4.569l3.83 3.362-.073.282-.04.119-.035.075a49.992 49.992 0 0 1-2.191-.388l-.392 1.962c.426.085.854.165 1.282.24l-.098.14A6 6 0 0 0 2 13.658V21h2.99c.001-1.104.897-2 2.001-2h9.802ZM9 13H6v2h3v-2Z" clip-rule="evenodd"/>
  <path fill="#000" d="M22 13.72v4.594l-4-3.612V13h-1.885l-4.43-4a47.966 47.966 0 0 0 5.815-.318l-.46-1.917a.989.989 0 0 0-.841-.759L16.087 6H8.363l-1.85-1.671A2.993 2.993 0 0 1 7.878 4h8.302a3 3 0 0 1 2.914 2.286l.519 2.121a49.993 49.993 0 0 0 2.19-.388l.393 1.962c-.44.087-.88.17-1.32.246A5.981 5.981 0 0 1 22 13.719Z"/>
</svg>
