<svg xmlns="http://www.w3.org/2000/svg" width="24" height="24" fill="none" viewBox="0 0 24 24">
  <path fill="#000" fill-rule="evenodd" d="M18 9a6 6 0 1 1 0 12 6 6 0 0 1 0-12Zm-1.82-5a3 3 0 0 1 2.867 2.114l.048.172.462 1.888a7.023 7.023 0 0 0-2.097-.154l-.308-1.258a1 1 0 0 0-.858-.756L16.181 6H7.88a1 1 0 0 0-.93.63l-.038.118-.503 1.929a49.99 49.99 0 0 0 8.115.25 6.992 6.992 0 0 0-2.26 2.06 51.68 51.68 0 0 1-6.95-.429l-.543.741a4 4 0 0 0-.762 2.106L4 13.66V20H2v-6.341a6 6 0 0 1 .988-3.299l.098-.14-.56-.1-.722-.14.392-1.96c.728.145 1.46.274 2.191.387l.036-.075.04-.119.513-1.97A3 3 0 0 1 7.7 4.005L7.88 4h8.302-.002ZM7.992 17l3.3.001a6.92 6.92 0 0 0 .965 2L7.99 19v1h-2v-1a2 2 0 0 1 1.851-1.995l.15-.005h.001ZM18 11a4 4 0 1 0 0 8 4 4 0 0 0 0-8Zm.5 1v2.5H21V16h-4v-4h1.5ZM9 13v2H6v-2h3Z" clip-rule="evenodd"/>
</svg>
