<svg xmlns="http://www.w3.org/2000/svg" width="24" height="24" fill="none" viewBox="0 0 24 24">
  <path fill="#000" fill-rule="evenodd" d="M16.18 4a3 3 0 0 1 2.867 2.114l.048.172.518 2.121c.492-.076.982-.16 1.471-.25l.72-.138.392 1.962c-.439.087-.879.17-1.32.246l-.109-.151a6 6 0 0 1 1.226 3.362l.007.281V20h-2v-6.28a4 4 0 0 0-.683-2.236l-.139-.194-.553-.724c-4.42.568-8.894.565-13.313-.008l-.542.741a4 4 0 0 0-.762 2.106L4 13.66V20H2v-6.341a6 6 0 0 1 .988-3.299l.098-.14-.56-.1-.722-.14.392-1.96c.728.145 1.46.274 2.192.387l.035-.075.04-.119.513-1.97A3 3 0 0 1 7.7 4.005L7.88 4h8.302-.002Zm-.062 13a2 2 0 0 1 1.995 1.85l.005.15v1h-2v-1H7.991v1h-2v-1a2 2 0 0 1 1.851-1.995l.15-.005h8.126ZM9 13v2H6v-2h3Zm9 0v2h-3v-2h3Zm-1.82-7h-8.3a1 1 0 0 0-.93.63l-.038.118-.503 1.928a49.99 49.99 0 0 0 11.213-.003l-.469-1.91a1 1 0 0 0-.858-.757L16.181 6Z" clip-rule="evenodd"/>
</svg>
