<svg xmlns="http://www.w3.org/2000/svg" width="24" height="24" fill="none" viewBox="0 0 24 24">
  <path fill="#000" d="M20 4a2 2 0 0 1 1.994 1.85L22 6v3H2V6a2 2 0 0 1 1.85-1.995L4 4h16Z"/>
  <path fill="#000" fill-rule="evenodd" d="M17.75 13.75a3 3 0 1 0 0 6 3 3 0 0 0 0-6Zm.312 2.687v-1.562h-.937v2.5h2.5v-.938h-1.563Z" clip-rule="evenodd"/>
  <path fill="#000" fill-rule="evenodd" d="M2 11h20v4.271A4.5 4.5 0 1 0 14.637 20H4a2 2 0 0 1-1.995-1.85L2 18v-7Zm8.017 3H5.995v2h4.022v-2Z" clip-rule="evenodd"/>
</svg>
