<svg xmlns="http://www.w3.org/2000/svg" width="24" height="24" fill="none" viewBox="0 0 24 24">
  <path fill="#000" fill-rule="evenodd" d="m17.454 12.202.072.002a.3.3 0 0 1 .257.27l-.002.07L17.286 16h2.194a.3.3 0 0 1 .103.018l.047.022a.3.3 0 0 1 .137.347l-.027.063-3.012 5.208a.3.3 0 0 1-.559-.123l.002-.07.494-3.456h-2.193a.3.3 0 0 1-.103-.018l-.047-.022a.3.3 0 0 1-.137-.347l.027-.063 3.012-5.208a.3.3 0 0 1 .23-.149ZM20 4a2 2 0 0 1 1.995 1.85L22 6v7h-2v-2H4v7h9v2H4a2 2 0 0 1-1.995-1.85L2 18V6a2 2 0 0 1 1.85-1.995L4 4h16Zm-10 9v2H6v-2h4Zm10-7H4v3h16V6Z" clip-rule="evenodd"/>
</svg>
