<svg xmlns="http://www.w3.org/2000/svg" width="24" height="24" fill="none" viewBox="0 0 24 24">
  <path fill="#000" d="M20 4a2 2 0 0 1 1.994 1.85L22 6v3H2V6a2 2 0 0 1 1.85-1.995L4 4h16Z"/>
  <path fill="#000" fill-rule="evenodd" d="M2 11h20v6l-3.535-3.536-1.415 1.415 1.122 1.12h-4.208v2h4.208l-1.122 1.122.88.879H4a2 2 0 0 1-1.995-1.85L2 18v-7Zm17 9h1l.15-.006A2 2 0 0 0 22 18v-1l-3 3Zm-8.983-6H5.995v2h4.022v-2Z" clip-rule="evenodd"/>
  <path fill="#000" d="m17.93 20 .535.535L19 20h-1.07Z"/>
</svg>
