<svg xmlns="http://www.w3.org/2000/svg" width="24" height="24" fill="none" viewBox="0 0 24 24">
  <path fill="#000" d="M20 4a2 2 0 0 1 1.994 1.85L22 6v3H2V6a2 2 0 0 1 1.85-1.995L4 4h16Z"/>
  <path fill="#000" fill-rule="evenodd" d="M2 11h20v7-2h-4.207l1.121-1.121-1.414-1.415L13.964 17l3 3H4a2 2 0 0 1-1.995-1.85L2 18v-7Zm16.035 9H20l.15-.006A2 2 0 0 0 22 18h-4.207l1.121 1.121-.879.879Zm-8.018-6H5.995v2h4.022v-2Z" clip-rule="evenodd"/>
  <path fill="#000" d="m16.965 20 .535.535.535-.535h-1.07Z"/>
</svg>
