<svg xmlns="http://www.w3.org/2000/svg" width="24" height="24" fill="none" viewBox="0 0 24 24">
  <path fill="#000" d="M20 4a2 2 0 0 1 1.994 1.85L22 6v3H2V6a2 2 0 0 1 1.85-1.995L4 4h16Z"/>
  <path fill="#000" fill-rule="evenodd" d="M2 11h20v7a2 2 0 0 1-1.85 1.994L20 20h-2.313l2.053-3.55.027-.063a.3.3 0 0 0-.137-.347l-.047-.022A.304.304 0 0 0 19.48 16h-2.194l.495-3.456.002-.07a.3.3 0 0 0-.257-.27l-.072-.002a.3.3 0 0 0-.23.15l-3.012 5.207-.027.063a.3.3 0 0 0 .137.347l.047.022a.3.3 0 0 0 .103.018h2.193L16.38 20H4a2 2 0 0 1-1.995-1.85L2 18v-7Zm8.017 3H5.995v2h4.022v-2Z" clip-rule="evenodd"/>
  <path fill="#000" d="M16.59 21.783a.3.3 0 0 0 .138-.125L17.687 20H16.38l-.209 1.465-.002.07a.3.3 0 0 0 .42.248Z"/>
</svg>
