<svg xmlns="http://www.w3.org/2000/svg" width="24" height="24" fill="none" viewBox="0 0 24 24">
  <path fill="#000" fill-rule="evenodd" d="M12 2c5.523 0 10 4.477 10 10s-4.477 10-10 10S2 17.523 2 12 6.477 2 12 2Zm.272 13.006L12 15a6 6 0 0 0-5.23 3.055A7.97 7.97 0 0 0 12 20a7.969 7.969 0 0 0 5.228-1.944 5.995 5.995 0 0 0-4.956-3.05ZM12 4a8 8 0 0 0-6.615 12.5 8.006 8.006 0 0 1 3.575-2.901 4 4 0 1 1 6.08 0 8.003 8.003 0 0 1 3.576 2.9A8 8 0 0 0 12 4Zm-.016 9h.033a2 2 0 1 0-.166-.005l.133.005Z" clip-rule="evenodd"/>
</svg>
