<svg xmlns="http://www.w3.org/2000/svg" width="24" height="24" fill="none" viewBox="0 0 24 24">
  <path fill="#000" d="M11.941 17.825a1.02 1.02 0 0 1-.745-.318 1.032 1.032 0 0 1-.317-.755 1 1 0 0 1 .318-.745c.212-.205.463-.308.753-.308s.538.103.745.308c.207.205.31.456.31.754 0 .286-.104.535-.313.747a1.017 1.017 0 0 1-.75.317Zm.064 4.528c1.437 0 2.783-.27 4.038-.81a10.45 10.45 0 0 0 3.294-2.22 10.45 10.45 0 0 0 2.22-3.294c.54-1.255.81-2.601.81-4.04 0-1.438-.27-2.785-.81-4.041a10.32 10.32 0 0 0-2.218-3.284 10.609 10.609 0 0 0-3.293-2.215c-1.255-.544-2.602-.816-4.041-.816-1.44 0-2.788.271-4.045.815A10.471 10.471 0 0 0 4.676 4.66a10.452 10.452 0 0 0-2.214 3.286 10.099 10.099 0 0 0-.815 4.047c0 1.438.272 2.785.816 4.04a10.562 10.562 0 0 0 2.215 3.287 10.413 10.413 0 0 0 3.286 2.219c1.257.543 2.605.814 4.041.814Zm-.032-14.627c-.447 0-.84.14-1.182.42-.341.279-.512.63-.512 1.056 0 .401.119.754.356 1.058.237.303.506.579.806.827.383.326.72.687 1.007 1.084.288.396.432.836.432 1.32a.6.6 0 0 1-.24.497.883.883 0 0 1-.559.187.788.788 0 0 1-.574-.228 1.283 1.283 0 0 1-.331-.557 2.083 2.083 0 0 0-.378-.873 3.658 3.658 0 0 0-.693-.705 4.055 4.055 0 0 1-.991-1.182 2.95 2.95 0 0 1-.386-1.46c0-.852.308-1.569.923-2.15a3.081 3.081 0 0 1 2.191-.873c.628 0 1.223.132 1.785.396a3.726 3.726 0 0 1 1.41 1.15.958.958 0 0 1 .171.607.692.692 0 0 1-.287.534.854.854 0 0 1-.683.132 1.008 1.008 0 0 1-.587-.386 2.133 2.133 0 0 0-.732-.622 2.007 2.007 0 0 0-.946-.232Z"/>
</svg>
