<svg xmlns="http://www.w3.org/2000/svg" width="24" height="24" fill="none" viewBox="0 0 24 24">
  <path fill="#000" fill-rule="evenodd" d="M12 2c5.52 0 10 4.48 10 10s-4.48 10-10 10S2 17.52 2 12 6.48 2 12 2Zm.682 4a.451.451 0 0 0-.28.127l-.048.058-4.296 6.506-.04.08a.346.346 0 0 0 .127.39l.069.043.068.027.072.017.074.006h3.128l-.704 4.318-.003.087c.017.17.165.312.366.337a.463.463 0 0 0 .38-.122l.051-.061 4.296-6.506.04-.08a.346.346 0 0 0-.127-.389l-.069-.043-.068-.028-.072-.017-.074-.006h-3.13l.706-4.318.003-.087a.387.387 0 0 0-.284-.32l-.082-.017L12.682 6Z" clip-rule="evenodd"/>
</svg>
