<svg xmlns="http://www.w3.org/2000/svg" width="24" height="24" fill="none" viewBox="0 0 24 24">
  <path fill="#000" d="m12 14.95 2.775 2.1c.2.133.4.137.6.012.2-.125.258-.304.175-.537L14.5 13.05l2.725-1.95c.2-.15.258-.338.175-.563-.083-.225-.242-.337-.475-.337H13.6l-1.125-3.65c-.083-.233-.242-.35-.475-.35-.233 0-.392.117-.475.35L10.4 10.2H7.075c-.233 0-.392.113-.475.338-.083.224-.025.412.175.562L9.5 13.05l-1.05 3.475c-.083.233-.025.413.175.538.2.125.4.12.6-.013L12 14.95ZM12 22a9.738 9.738 0 0 1-3.9-.788 10.099 10.099 0 0 1-3.175-2.137c-.9-.9-1.612-1.958-2.137-3.175A9.738 9.738 0 0 1 2 12a9.74 9.74 0 0 1 .788-3.9 10.099 10.099 0 0 1 2.137-3.175c.9-.9 1.958-1.612 3.175-2.137A9.738 9.738 0 0 1 12 2a9.74 9.74 0 0 1 3.9.788 10.098 10.098 0 0 1 3.175 2.137c.9.9 1.613 1.958 2.137 3.175A9.738 9.738 0 0 1 22 12a9.738 9.738 0 0 1-.788 3.9 10.098 10.098 0 0 1-2.137 3.175c-.9.9-1.958 1.613-3.175 2.137A9.738 9.738 0 0 1 12 22Zm0-2c2.217 0 4.104-.78 5.663-2.337C19.22 16.104 20 14.217 20 12s-.78-4.104-2.337-5.662C16.104 4.779 14.217 4 12 4s-4.104.78-5.662 2.338C4.779 7.896 4 9.783 4 12s.78 4.104 2.338 5.663C7.896 19.22 9.783 20 12 20Z"/>
</svg>
