<svg xmlns="http://www.w3.org/2000/svg" width="24" height="24" fill="none" viewBox="0 0 24 24">
  <path fill="#000" fill-rule="evenodd" d="m14.828 9.878-1.414 1.415a3 3 0 0 0-4.114-.121l-.129.12-3.889 3.89a2.5 2.5 0 0 0 3.416 3.648l.12-.113 1.768-1.767L12 18.364l-1.768 1.767a4.5 4.5 0 0 1-6.51-6.21l.146-.153 3.89-3.89a5 5 0 0 1 6.913-.15l.157.15Zm5.303-6.01a4.5 4.5 0 0 1 .147 6.21l-.146.154-3.89 3.89a5 5 0 0 1-6.914.15l-.157-.15 1.415-1.415a3 3 0 0 0 4.114.12l.128-.12 3.89-3.89a2.5 2.5 0 0 0-3.416-3.647l-.12.112-1.768 1.768L12 5.636l1.768-1.768a4.5 4.5 0 0 1 6.363 0Z" clip-rule="evenodd"/>
</svg>
