<svg xmlns="http://www.w3.org/2000/svg" width="24" height="24" fill="none" viewBox="0 0 24 24">
  <path fill="#000" fill-rule="evenodd" d="M10.223 19.8a7.96 7.96 0 0 0 1.766.202l-.004 2a9.998 9.998 0 0 1-2.207-.251l.445-1.95Zm5.233-.585.863 1.804-.091.044c-.65.302-1.32.532-2.007.69l-.446-1.95c.44-.1.871-.239 1.293-.414l.388-.174Zm-8.44-.954c.466.37.971.687 1.507.945l-.868 1.801a10.05 10.05 0 0 1-1.883-1.18l1.245-1.566ZM12 2c5.523 0 10 4.477 10 10a9.979 9.979 0 0 1-3.479 7.581l-.247.206-1.255-1.557A8 8 0 1 0 6.112 6.584l-.176.198 1.322 1.11a.5.5 0 0 1-.197.867L2.79 9.86a.5.5 0 0 1-.623-.523L2.51 4.94a.5.5 0 0 1 .82-.345l1.073.901.21-.237A9.975 9.975 0 0 1 12 2ZM4.815 15.519c.264.539.583 1.041.953 1.501L4.21 18.273a10.01 10.01 0 0 1-1.191-1.875l1.796-.88Zm-.817-3.465c.004.592.073 1.184.21 1.764l-1.948.456a9.933 9.933 0 0 1-.262-2.208l2-.012ZM13 8v4h3v2h-5V8h2Z" clip-rule="evenodd"/>
</svg>
