<svg xmlns="http://www.w3.org/2000/svg" width="24" height="24" fill="none" viewBox="0 0 24 24">
  <path fill="#000" fill-rule="evenodd" d="M10.313 19.822c.44.094.89.152 1.346.17l.425.008.02 2h-.102c-.715 0-1.42-.075-2.11-.223l.42-1.955h.001Zm5.22-.642.885 1.794a9.942 9.942 0 0 1-2.092.754l-.463-1.945a7.93 7.93 0 0 0 1.67-.603Zm-8.439-.861c.47.365.978.677 1.516.929l-.85 1.81a9.998 9.998 0 0 1-1.894-1.16l1.228-1.58v.001ZM12.001 2c.132 0 .263.003.394.008L12.001 2c.167 0 .334.004.5.012l.186.011.245.02.186.019.234.029.202.029.244.041.198.038.213.046c.684.154 1.35.38 1.986.674l.15.072c.261.125.515.262.762.41l.406.254.166.112.22.157.319.243c.47.374.907.79 1.303 1.242l.315.377c.074.093.147.188.218.284l-.243-.316c.36.449.68.927.957 1.431l.046.086c.385.715.684 1.481.887 2.287l.04.17c.03.127.057.255.082.383l-.086-.404c.038.164.072.328.102.494l.063.387.056.483.014.164.017.269a10.14 10.14 0 0 1-.138 2.23l-.083.42c-.04.181-.084.36-.134.538l-.114.38-.13.377-.182.46a9.98 9.98 0 0 1-1.362 2.294l.029-.037c-.098.124-.199.246-.302.366l-.122.14-.173.187c-.124.132-.252.26-.383.385l-.373.337-.247.206-1.255-1.557.364-.312.156-.145a8.056 8.056 0 0 0 1.61-2.178l.092-.188.115-.257.12-.297.134-.378.043-.138.054-.182c.04-.142.075-.285.107-.43l.056-.28c.064-.354.105-.714.122-1.079l.008-.436-.01-.349-.033-.416-.02-.173-.023-.171-.03-.19-.035-.187a7.946 7.946 0 0 0-.671-1.98l-.14-.272-.023-.041a7.902 7.902 0 0 0-.608-.942l-.206-.264c-.375-.46-.8-.877-1.267-1.243l-.231-.174-.278-.194-.295-.187-.38-.216-.094-.049.094.05a7.946 7.946 0 0 0-2.04-.749l-.311-.061-.246-.04-.303-.037-.16-.016-.187-.013-.19-.01L12.001 4c-.806 0-1.593.12-2.34.347l-.271.089-.27.098-.299.123a7.958 7.958 0 0 0-2.226 1.445l-.167.159-.21.21c-.2.21-.39.432-.567.663L4.064 5.916c.208-.27.43-.53.664-.779l.27-.275.288-.273.321-.278c.46-.384.955-.725 1.477-1.02l.394-.212.079-.04c.087-.043.175-.085.264-.126l-.343.166c.14-.07.28-.138.421-.202l.46-.193.402-.147.166-.055.233-.072.16-.046.24-.064a10.097 10.097 0 0 1 1.775-.278l.456-.02.21-.002ZM4.839 15.568a8.01 8.01 0 0 0 .966 1.493l-1.548 1.266a10.01 10.01 0 0 1-1.208-1.865l1.79-.894ZM4 12.152c.012.6.089 1.19.23 1.764l-1.943.477a10.01 10.01 0 0 1-.286-2.203l2-.038H4ZM13 8v4h3v2h-5V8h2ZM2.908 7.832l1.818.835a7.934 7.934 0 0 0-.556 1.687l-1.957-.41c.152-.73.386-1.437.695-2.112Z" clip-rule="evenodd"/>
</svg>
