<svg xmlns="http://www.w3.org/2000/svg" width="24" height="24" fill="none" viewBox="0 0 24 24">
  <path fill="#000" fill-rule="evenodd" d="M12 22c5.523 0 10-4.477 10-10S17.523 2 12 2 2 6.477 2 12s4.477 10 10 10ZM5.076 8.626c.4-.365.945-.524 1.588-.524h1.449c.18 0 .328.146.328.327v.776a.328.328 0 0 1-.328.328h-1.55c-.183 0-.3.051-.386.133a.394.394 0 0 0-.134.304v4.06c0 .119.04.214.134.304.085.082.203.133.385.133h1.55c.182 0 .329.147.329.328v.775a.328.328 0 0 1-.328.328H6.664c-.641 0-1.186-.155-1.585-.511l-.006-.005c-.4-.374-.573-.91-.573-1.546v-3.672c0-.636.173-1.17.576-1.538Zm5.111 0c.4-.365.945-.524 1.589-.524h.408c.64 0 1.184.158 1.578.524.409.367.586.902.586 1.538v3.672c0 .638-.178 1.175-.586 1.548-.394.36-.937.514-1.578.514h-.408c-.642 0-1.187-.155-1.586-.511l-.005-.005c-.4-.374-.574-.91-.574-1.546v-3.672c0-.636.173-1.17.576-1.538Zm5.495-.197c0-.18.146-.328.328-.328h1.122c.641 0 1.184.159 1.578.525.41.367.586.902.586 1.538v.428c0 .352-.024.655-.08.899-.053.235-.13.451-.235.645-.098.18-.252.42-.458.715l-.001.001-1.144 1.615h1.794c.181 0 .328.147.328.328v.775a.328.328 0 0 1-.328.328h-3.694V14.57l1.69-2.41c.218-.313.358-.524.425-.64l.001-.002.001-.002a.958.958 0 0 0 .123-.304c.021-.104.035-.275.035-.527V9.97a.394.394 0 0 0-.134-.304c-.085-.082-.203-.133-.385-.133H16.01a.328.328 0 0 1-.328-.328v-.776Zm-4.008 1.104c-.182 0-.3.051-.386.133a.394.394 0 0 0-.133.304v4.06c0 .119.04.214.133.304.086.082.204.133.386.133h.612c.181 0 .3-.051.385-.133a.394.394 0 0 0 .134-.304V9.97a.394.394 0 0 0-.134-.304c-.085-.082-.204-.133-.385-.133h-.612Z" clip-rule="evenodd"/>
</svg>
