<svg xmlns="http://www.w3.org/2000/svg" width="24" height="24" fill="none" viewBox="0 0 24 24">
  <path fill="#000" fill-rule="evenodd" d="M4.886 6.802c-.858 0-1.586.212-2.118.7C2.231 7.991 2 8.704 2 9.551v4.896c0 .848.23 1.562.764 2.06l.008.007c.532.476 1.258.683 2.114.683h1.931a.437.437 0 0 0 .437-.437v-1.034a.437.437 0 0 0-.437-.437H4.75c-.243 0-.4-.07-.514-.178a.526.526 0 0 1-.178-.405V9.293c0-.158.053-.285.178-.405.114-.109.271-.178.514-.178h2.067a.437.437 0 0 0 .437-.437V7.239a.437.437 0 0 0-.437-.437H4.886Zm6.815 0c-.858 0-1.585.212-2.118.7-.537.49-.768 1.203-.768 2.05v4.896c0 .848.231 1.562.764 2.06l.008.007c.532.476 1.258.683 2.114.683h.544c.854 0 1.58-.207 2.104-.686.544-.498.781-1.213.781-2.064V9.552c0-.848-.235-1.56-.781-2.05-.525-.489-1.25-.7-2.104-.7H11.7Zm5.645 0a.437.437 0 0 0-.437.437v1.034c0 .242.196.437.437.437h1.632c.243 0 .4.07.514.178.125.12.178.247.178.405v.952c0 .336-.018.565-.046.704-.025.125-.077.26-.164.404l-.001.003-.002.003c-.09.155-.275.436-.566.854l-2.254 3.213v1.772h4.926A.437.437 0 0 0 22 16.76v-1.034a.437.437 0 0 0-.437-.437H19.17l1.525-2.154.001-.002c.275-.393.481-.713.61-.953a3.34 3.34 0 0 0 .315-.86 5.62 5.62 0 0 0 .106-1.198v-.571c0-.848-.236-1.56-.782-2.05-.524-.489-1.249-.7-2.104-.7h-1.496Zm-6.295 2.086c.114-.109.271-.178.514-.178h.816c.242 0 .4.07.514.178.125.12.178.247.178.405v5.414a.526.526 0 0 1-.178.405c-.114.109-.272.178-.514.178h-.816c-.243 0-.4-.07-.514-.178a.526.526 0 0 1-.178-.405V9.293c0-.158.053-.285.178-.405Z" clip-rule="evenodd"/>
</svg>
