<svg xmlns="http://www.w3.org/2000/svg" width="24" height="24" fill="none" viewBox="0 0 24 24">
  <path fill="#000" fill-rule="evenodd" d="M20 4a2 2 0 0 1 1.994 1.85L22 6v5h-2v2h2v5a2 2 0 0 1-1.85 1.994L20 20H4a2 2 0 0 1-1.995-1.85L2 18v-5h2v-2H2V6a2 2 0 0 1 1.85-1.995L4 4h16Zm0 2H4v3a2 2 0 0 1 1.995 1.85L6 11v2a2 2 0 0 1-1.85 1.995L4 15v3h16v-3l-.15-.005a2 2 0 0 1-1.844-1.838L18 13v-2l.006-.15a2 2 0 0 1 1.837-1.844L20 9V6Zm-4.995 1.934 1.06 1.06-7.07 7.072-1.06-1.06 7.07-7.072ZM15 14a1 1 0 1 1 0 2 1 1 0 0 1 0-2ZM9 8a1 1 0 1 1 0 2 1 1 0 0 1 0-2Z" clip-rule="evenodd"/>
</svg>
