<svg width="24" height="24" viewBox="0 0 24 24" fill="none" xmlns="http://www.w3.org/2000/svg">
<g clip-path="url(#clip0_24_686)">
<path d="M17.04 9.87857L15.632 8.46436L13.52 10.5859L11.408 8.46436L10 9.87857L12.1122 11.9999L10 14.1212L11.408 15.5354L13.52 13.4139L15.632 15.5354L17.04 14.1212L14.9278 11.9999L17.04 9.87857Z" fill="black"/>
<path fill-rule="evenodd" clip-rule="evenodd" d="M3.5 12L7.90177 18.1625C8.27719 18.6881 8.88333 19 9.52924 19H18.5C19.6046 19 20.5 18.1046 20.5 17V7C20.5 5.89543 19.6046 5 18.5 5H9.52924C8.88333 5 8.27719 5.31193 7.90177 5.83752L3.5 12ZM5.95781 12L9.52924 7H18.5V17H9.52924L5.95781 12Z" fill="black"/>
</g>
<defs>
<clipPath id="clip0_24_686">
<rect width="24" height="24" fill="white"/>
</clipPath>
</defs>
</svg>
