<svg xmlns="http://www.w3.org/2000/svg" width="24" height="24" fill="none" viewBox="0 0 24 24">
  <path fill="#000" d="m11 22 .25-3h.25c2.367 0 4.375-.825 6.025-2.475C19.175 14.875 20 12.867 20 10.5c0-2.367-.825-4.375-2.475-6.025C15.875 2.825 13.867 2 11.5 2a8.28 8.28 0 0 0-3.313.663 8.585 8.585 0 0 0-4.524 4.525A8.28 8.28 0 0 0 3 10.5c0 2.533.758 4.804 2.275 6.813A15.625 15.625 0 0 0 11 22Zm.525-6.025a.988.988 0 0 1-.725-.3c-.2-.2-.3-.442-.3-.725s.1-.525.3-.725c.2-.2.442-.3.725-.3s.525.1.725.3c.2.2.3.442.3.725s-.1.525-.3.725c-.2.2-.442.3-.725.3ZM11.5 12.8a.735.735 0 0 1-.5-.2.988.988 0 0 1-.3-.55 1.16 1.16 0 0 0-.275-.588c-.15-.175-.408-.445-.775-.812-.3-.3-.55-.625-.75-.975-.2-.35-.3-.725-.3-1.125 0-.85.287-1.488.863-1.913C10.037 6.213 10.716 6 11.5 6c.583 0 1.088.133 1.512.4.425.267.771.6 1.038 1a.616.616 0 0 1 .063.575c-.075.2-.23.342-.463.425a.65.65 0 0 1-.5 0 1.047 1.047 0 0 1-.45-.375 1.673 1.673 0 0 0-.487-.45c-.192-.117-.43-.175-.713-.175-.45 0-.787.125-1.012.375-.226.25-.338.525-.338.825 0 .283.083.537.25.763.167.225.367.454.6.687.467.4.78.725.938.975.158.25.254.592.287 1.025a.655.655 0 0 1-.188.525.708.708 0 0 1-.537.225ZM9 17v1.35c-1.183-1-2.146-2.17-2.888-3.513A8.823 8.823 0 0 1 5 10.5c0-1.817.63-3.354 1.888-4.612C8.146 4.629 9.683 4 11.5 4c1.817 0 3.354.63 4.613 1.888C17.37 7.146 18 8.683 18 10.5c0 1.817-.63 3.354-1.887 4.613C14.854 16.37 13.317 17 11.5 17H9Z"/>
</svg>
