<svg xmlns="http://www.w3.org/2000/svg" width="24" height="24" fill="none" viewBox="0 0 24 24">
  <path fill="#000" d="m15.815 12.569.48-1.002c.458-.778.7-1.664.705-2.567a5 5 0 0 0-8.41-3.657L7.175 3.93a7 7 0 0 1 10.888 8.57l-.751 1.566-1.497-1.498ZM5.93 5.515v-.002l1.488 1.486-.002.003 7.481 7.48.002-.002 1.496 1.497v.003l4.212 4.212-1.415 1.415-3.714-3.715-.979 2.04A3.998 3.998 0 1 1 7.536 16a1 1 0 0 1 1.733 1.002A1.992 1.992 0 0 0 9 18a2.027 2.027 0 0 0 2 2 2.005 2.005 0 0 0 1.732-1l1.249-2.605-6.963-6.962a5 5 0 0 0 .152.861 1 1 0 0 1-1.932.518 7 7 0 0 1-.089-3.249L1.394 3.808l1.414-1.415 3.121 3.122Z"/>
  <path fill="#000" d="m10.007 6.76 1.42 1.42A.987.987 0 0 1 12 8a1 1 0 0 1 1 1 1 1 0 0 0 2 0 2.998 2.998 0 0 0-4.993-2.24Z"/>
</svg>
