<svg xmlns="http://www.w3.org/2000/svg" width="24" height="24" fill="none" viewBox="0 0 24 24">
  <path fill="#000" fill-rule="evenodd" d="m14.649 11.85 1.45 1.45c.133-.283.233-.57.3-.863.067-.291.1-.604.1-.937 0-1.25-.438-2.313-1.312-3.188C14.312 7.437 13.248 7 11.998 7a4.2 4.2 0 0 0-.938.1 4.286 4.286 0 0 0-.862.3l1.45 1.45c.95-.15 1.725.117 2.325.8.6.683.825 1.417.675 2.2Zm3.2 3.2 1.45 1.4a11.004 11.004 0 0 0 2.188-2.212 11.696 11.696 0 0 0 1.512-2.738c-.883-2.217-2.308-4.02-4.275-5.413C16.757 4.696 14.516 4 11.999 4a11.08 11.08 0 0 0-4.35.85l1.55 1.55a9.706 9.706 0 0 1 2.8-.4c1.917 0 3.654.496 5.213 1.487 1.558.992 2.754 2.33 3.587 4.013a8.898 8.898 0 0 1-1.262 1.963 10.942 10.942 0 0 1-1.688 1.587Zm-8.45 3.682-8.044-8.044c-.128.265-.246.535-.356.812.883 2.217 2.308 4.02 4.275 5.413a11.134 11.134 0 0 0 4.124 1.819Z" clip-rule="evenodd"/>
  <path fill="#000" d="m1.399 4.2 1.4-1.4 18.4 18.4-1.4 1.4-18.4-18.4Zm.741 5.106 1.238-1.562 11.018 11.018c-.836.171-1.712.247-2.563.237L2.14 9.306Z"/>
</svg>
