<svg xmlns="http://www.w3.org/2000/svg" width="24" height="24" fill="none" viewBox="0 0 24 24">
  <path fill="#000" d="m19.8 22.6-4.2-4.15c-.583.183-1.17.32-1.762.413-.592.091-1.205.137-1.838.137-2.517 0-4.758-.696-6.725-2.087C3.308 15.52 1.883 13.717 1 11.5c.35-.883.792-1.704 1.325-2.463A11.514 11.514 0 0 1 4.15 7L1.4 4.2l1.4-1.4 18.4 18.4-1.4 1.4ZM12 16a4.9 4.9 0 0 0 .512-.025c.159-.017.33-.05.513-.1l-5.4-5.4c-.05.183-.083.354-.1.513a4.81 4.81 0 0 0-.025.512c0 1.25.438 2.313 1.313 3.188C9.687 15.562 10.75 16 12 16Zm7.3.45-3.175-3.15c.117-.283.208-.57.275-.863.067-.291.1-.604.1-.937 0-1.25-.438-2.313-1.313-3.188C14.313 7.437 13.25 7 12 7a4.2 4.2 0 0 0-.938.1 4.24 4.24 0 0 0-.862.3L7.65 4.85A11.08 11.08 0 0 1 12 4c2.517 0 4.758.696 6.725 2.087C20.692 7.48 22.117 9.283 23 11.5a11.696 11.696 0 0 1-1.512 2.738A11.007 11.007 0 0 1 19.3 16.45Zm-4.625-4.6-3-3a2.296 2.296 0 0 1 1.287.112c.392.159.73.388 1.013.688.283.3.488.646.613 1.037.125.392.154.78.087 1.163Z"/>
</svg>
