<svg xmlns="http://www.w3.org/2000/svg" width="24" height="24" fill="none" viewBox="0 0 24 24">
  <path fill="#000" d="M15.5 11c.417 0 .77-.146 1.063-.438.291-.291.437-.645.437-1.062 0-.417-.146-.77-.438-1.063A1.447 1.447 0 0 0 15.5 8c-.417 0-.77.146-1.063.438A1.446 1.446 0 0 0 14 9.5c0 .417.146.77.438 1.063.291.291.645.437 1.062.437Zm-7 0c.417 0 .77-.146 1.063-.438.291-.291.437-.645.437-1.062 0-.417-.146-.77-.438-1.063A1.447 1.447 0 0 0 8.5 8c-.417 0-.77.146-1.063.438A1.447 1.447 0 0 0 7 9.5c0 .417.146.77.438 1.063.291.291.645.437 1.062.437Zm3.5 6.5c1.133 0 2.162-.32 3.088-.962A5.485 5.485 0 0 0 17.1 14h-1.65a4.1 4.1 0 0 1-1.462 1.463A3.846 3.846 0 0 1 12 16c-.717 0-1.38-.18-1.988-.537A4.099 4.099 0 0 1 8.55 14H6.9a5.485 5.485 0 0 0 2.012 2.538A5.294 5.294 0 0 0 12 17.5Zm0 4.5a9.738 9.738 0 0 1-3.9-.788 10.099 10.099 0 0 1-3.175-2.137c-.9-.9-1.612-1.958-2.137-3.175A9.738 9.738 0 0 1 2 12a9.74 9.74 0 0 1 .788-3.9 10.099 10.099 0 0 1 2.137-3.175c.9-.9 1.958-1.612 3.175-2.137A9.738 9.738 0 0 1 12 2a9.74 9.74 0 0 1 3.9.788 10.098 10.098 0 0 1 3.175 2.137c.9.9 1.613 1.958 2.137 3.175A9.738 9.738 0 0 1 22 12a9.738 9.738 0 0 1-.788 3.9 10.098 10.098 0 0 1-2.137 3.175c-.9.9-1.958 1.613-3.175 2.137A9.738 9.738 0 0 1 12 22Z"/>
</svg>
