<svg xmlns="http://www.w3.org/2000/svg" width="24" height="24" fill="none" viewBox="0 0 24 24">
  <path fill="#000" d="M7.155 8.5A4.935 4.935 0 0 1 6.48 6c0-1.383.487-2.563 1.462-3.538C8.917 1.487 10.097 1 11.48 1s2.563.488 3.537 1.462c.976.975 1.463 2.155 1.463 3.538a4.938 4.938 0 0 1-.675 2.5l-1.725-1c.133-.233.233-.47.3-.713.067-.241.1-.504.1-.787 0-.833-.292-1.542-.875-2.125A2.893 2.893 0 0 0 11.48 3c-.833 0-1.542.292-2.125.875A2.893 2.893 0 0 0 8.48 6c0 .283.033.546.1.787.067.242.167.48.3.713l-1.725 1Z"/>
  <path fill="#000" d="m19.98 15.82-.63 4.46c-.14.99-.99 1.72-1.98 1.72h-6.16c-.53 0-1.29-.21-1.66-.59L5 16.62l.83-.84c.24-.24.58-.35.92-.28l3.25.74V5.5c0-.83.67-1.5 1.5-1.5s1.5.67 1.5 1.5v6h.91c.31 0 .62.07.89.21l4.09 2.04c.77.39 1.21 1.22 1.09 2.07Z"/>
</svg>
