<svg xmlns="http://www.w3.org/2000/svg" width="24" height="24" fill="none" viewBox="0 0 24 24">
  <path fill="#000" d="m21.119 10.074 1.732 4.1c.384.91.004 1.949-.875 2.435l-5.47 3.029c-.47.26-1.253.456-1.776.315l-6.501-1.834.305-1.122a1.01 1.01 0 0 1 .673-.69l3.266-.969-5.517-9.127c-.426-.705-.176-1.604.561-2.012.737-.408 1.676-.168 2.103.537l3.082 5.099.808-.447c.275-.153.587-.246.898-.26l4.68-.277c.884-.047 1.7.442 2.03 1.223Z"/>
  <path fill="#000" fill-rule="evenodd" d="M1.947 10.72c.984-1.942 2.537-3.334 3.705-4.042l1.097 1.66c-.89.539-2.16 1.668-2.955 3.24-.78 1.538-1.11 3.506-.165 5.833l-1.912.711c-1.174-2.889-.77-5.426.23-7.401Z" clip-rule="evenodd"/>
</svg>
