<svg xmlns="http://www.w3.org/2000/svg" width="24" height="24" fill="none" viewBox="0 0 24 24">
  <path fill="#000" d="M6 14c0 .867.175 1.688.525 2.462.35.776.85 1.455 1.5 2.038A1.158 1.158 0 0 1 8 18.275v-.225c0-.533.1-1.033.3-1.5.2-.467.492-.892.875-1.275L12 12.5l2.825 2.775c.383.383.675.808.875 1.275.2.467.3.967.3 1.5v.225c0 .067-.008.142-.025.225a6.073 6.073 0 0 0 1.5-2.038c.35-.774.525-1.595.525-2.462 0-.833-.154-1.62-.462-2.363A6.102 6.102 0 0 0 16.2 9.65a3.951 3.951 0 0 1-2.175.65c-1.033 0-1.93-.342-2.688-1.025a3.908 3.908 0 0 1-1.312-2.525A14.48 14.48 0 0 0 8.3 8.463c-.5.591-.92 1.191-1.263 1.8a8.303 8.303 0 0 0-.774 1.862A7.017 7.017 0 0 0 6 14Zm6 1.3-1.425 1.4a1.981 1.981 0 0 0-.425.625c-.1.233-.15.475-.15.725 0 .533.196.992.588 1.375.391.383.862.575 1.412.575.55 0 1.02-.192 1.412-.575.392-.383.588-.842.588-1.375a1.8 1.8 0 0 0-.15-.738 2.026 2.026 0 0 0-.425-.612L12 15.3ZM12 3v3.3c0 .567.196 1.042.588 1.425.391.383.87.575 1.437.575.3 0 .58-.063.838-.188s.487-.312.687-.562L16 7a7.704 7.704 0 0 1 2.925 2.925A8.052 8.052 0 0 1 20 14c0 2.233-.775 4.125-2.325 5.675C16.125 21.225 14.233 22 12 22c-2.233 0-4.125-.775-5.675-2.325C4.775 18.125 4 16.233 4 14c0-2.15.72-4.192 2.162-6.125C7.604 5.942 9.55 4.317 12 3Z"/>
</svg>
