<svg xmlns="http://www.w3.org/2000/svg" width="24" height="24" fill="none" viewBox="0 0 24 24">
  <path fill="#000" d="M4.175 14.003c0-1.527.359-2.91 1.076-4.148.717-1.24 1.529-2.317 2.434-3.233.906-.917 1.77-1.651 2.595-2.203a79.42 79.42 0 0 0 1.545-1.05V6.3c0 .67.226 1.2.677 1.59.451.39.957.585 1.517.585.257 0 .502-.045.735-.136a2.12 2.12 0 0 0 .661-.422l.616-.669a8.308 8.308 0 0 1 2.767 2.894 7.575 7.575 0 0 1 1.027 3.846c0 1.557-.405 2.95-1.215 4.178a7.694 7.694 0 0 1-3.16 2.77c.353-.39.63-.83.827-1.325a4.133 4.133 0 0 0 .298-1.556 4.46 4.46 0 0 0-.343-1.721 4.586 4.586 0 0 0-.986-1.48L12 11.698l-3.221 3.156a4.38 4.38 0 0 0-1.007 1.451 4.414 4.414 0 0 0-.347 1.745c0 .547.1 1.068.298 1.561.198.494.474.936.827 1.325-1.296-.617-2.35-1.542-3.16-2.773-.81-1.232-1.215-2.618-1.215-4.16Z"/>
  <path fill="#000" d="m12 14.696 1.776 1.757c.234.236.413.497.538.78.124.285.186.591.186.92 0 .677-.243 1.254-.73 1.732a2.433 2.433 0 0 1-1.77.717 2.433 2.433 0 0 1-1.77-.717 2.338 2.338 0 0 1-.73-1.731c0-.328.06-.634.18-.918.121-.284.3-.542.54-.775L12 14.696Z"/>
</svg>
