<svg xmlns="http://www.w3.org/2000/svg" width="24" height="24" fill="none" viewBox="0 0 24 24">
  <path fill="#000" d="M7 14v6a.97.97 0 0 1-.287.712A.967.967 0 0 1 6 21a.967.967 0 0 1-.713-.288A.968.968 0 0 1 5 20V5c0-.283.096-.52.287-.713A.968.968 0 0 1 6 4h7.175a.96.96 0 0 1 .625.225c.183.15.3.342.35.575L14.4 6H19a.97.97 0 0 1 .712.287c.192.192.288.43.288.713v8a.97.97 0 0 1-.288.713A.968.968 0 0 1 19 16h-5.175a.96.96 0 0 1-.625-.225.99.99 0 0 1-.35-.575L12.6 14H7Zm7.65 0H18V8h-4.425a.96.96 0 0 1-.625-.225.99.99 0 0 1-.35-.575L12.35 6H7v6h6.425a.96.96 0 0 1 .625.225c.183.15.3.342.35.575l.25 1.2Z"/>
</svg>
