<svg xmlns="http://www.w3.org/2000/svg" width="24" height="24" fill="none" viewBox="0 0 24 24">
  <path fill="#000" d="M4 21V5c0-.55.196-1.02.588-1.413A1.926 1.926 0 0 1 6 3h6c.55 0 1.02.196 1.412.587C13.804 3.98 14 4.45 14 5v7h1c.55 0 1.02.196 1.413.588.391.391.587.862.587 1.412v4.5c0 .283.096.52.288.712.191.192.429.288.712.288s.52-.096.712-.288A.968.968 0 0 0 19 18.5v-7.2c-.15.083-.308.137-.475.162A3.539 3.539 0 0 1 18 11.5c-.7 0-1.292-.242-1.775-.725C15.742 10.292 15.5 9.7 15.5 9c0-.533.146-1.013.438-1.438A2.412 2.412 0 0 1 17.1 6.65L15 4.55l1.05-1.05 3.7 3.6c.25.25.438.542.563.875.125.333.187.675.187 1.025v9.5c0 .7-.242 1.292-.725 1.775C19.292 20.758 18.7 21 18 21s-1.292-.242-1.775-.725c-.483-.483-.725-1.075-.725-1.775v-5H14V21H4Zm2-11h6V5H6v5Zm12 0a.97.97 0 0 0 .712-.287A.967.967 0 0 0 19 9a.967.967 0 0 0-.288-.713A.968.968 0 0 0 18 8a.968.968 0 0 0-.712.287A.967.967 0 0 0 17 9c0 .283.096.52.288.713A.968.968 0 0 0 18 10ZM6 19h6v-7H6v7Z"/>
</svg>
