<svg xmlns="http://www.w3.org/2000/svg" width="24" height="24" fill="none" viewBox="0 0 24 24">
  <path fill="#000" fill-rule="evenodd" d="m14.737 2.5.383 2.128.12.054c.32.148.617.304.893.47l.27.17.158.109.284-.127 1.724-.715 2.964 4.86-1.287 1.107-.4.349.026.2c.02.159.033.31.043.458l.01.219.004.217c0 .237-.013.472-.04.73l-.03.268-.014.095.262.231 1.43 1.22-2.962 4.855-1.722-.7-.282-.126c-.291.211-.594.4-.908.567l-.317.158-.231.1-.377 2.103H9.144l-.374-2.085-.128-.052a6.539 6.539 0 0 1-.823-.438l-.27-.177-.243-.174-.35.155-1.655.659-2.957-4.845 1.3-1.107.325-.285-.033-.258a8.704 8.704 0 0 1-.042-.458l-.01-.22L3.88 12c0-.236.013-.47.039-.728l.03-.267.022-.156-.152-.134-1.474-1.259 2.962-4.854 1.722.7.282.125a7.89 7.89 0 0 1 .908-.563l.32-.16.227-.101.378-2.102h5.593ZM12 8a4 4 0 1 1 0 8 4 4 0 0 1 0-8Z" clip-rule="evenodd"/>
</svg>
