<svg xmlns="http://www.w3.org/2000/svg" width="24" height="24" fill="none" viewBox="0 0 24 24">
  <path fill="#000" fill-rule="evenodd" d="m14.737 2.5.383 2.128.12.054c.32.148.617.304.893.47l.27.17.158.109.285-.127 1.723-.715 2.964 4.86-1.287 1.107-.4.349.026.2c.02.159.033.31.043.458l.01.219.004.217c0 .237-.013.472-.04.73l-.03.268-.014.095.262.231 1.43 1.22-2.962 4.855-1.722-.7-.282-.126c-.291.211-.594.4-.908.567l-.317.158-.231.1-.377 2.103H9.144l-.374-2.085-.128-.052a6.539 6.539 0 0 1-.823-.438l-.27-.177-.243-.174-.35.155-1.655.659-2.957-4.845 1.3-1.107.325-.285-.033-.258a8.704 8.704 0 0 1-.042-.458l-.01-.22L3.88 12c0-.236.013-.47.039-.728l.03-.267.022-.156-.152-.134-1.474-1.259 2.962-4.854 1.722.7.282.125a7.89 7.89 0 0 1 .908-.563l.32-.16.227-.101.378-2.102h5.593Zm-1.672 2h-2.248l-.294 1.638-.51.127c-.559.167-1.175.499-1.715.922l-.227.187-.487.364-.488-.241a4.117 4.117 0 0 1-.407-.158l-.385-.172-.174-.074L4.94 9.04l.468.41.167.143.175.144.382.375-.111.549c-.065.39-.142.908-.142 1.338 0 .345.05.745.103 1.097l.04.253.11.538-.354.351-.15.122-.135.116-.553.483 1.189 1.948.174-.074.387-.173.22-.093.23-.083.443-.223.467.348c.61.528 1.167.866 1.75 1.06l.22.066.502.125.294 1.64h2.248l.296-1.64.508-.127c.567-.168 1.17-.491 1.714-.92l.23-.189.486-.363.488.24c.127.04.264.097.406.16l.386.171.174.075 1.188-1.948-.152-.132-.15-.132-.331-.288-.177-.144-.462-.344.118-.58c.065-.39.142-.906.142-1.34 0-.347-.05-.746-.103-1.096l-.04-.253-.117-.57.471-.35.253-.21.548-.48-1.188-1.948-.174.074-.388.174-.22.092-.23.083-.442.223-.466-.347c-.45-.388-.998-.714-1.726-1.024l-.282-.116-.464-.113-.296-1.638ZM12 8a4 4 0 1 1 0 8 4 4 0 0 1 0-8Zm0 2a2 2 0 1 0 0 4 2 2 0 0 0 0-4Z" clip-rule="evenodd"/>
</svg>
