<svg xmlns="http://www.w3.org/2000/svg" width="24" height="24" fill="none" viewBox="0 0 24 24">
  <path fill="#000" fill-rule="evenodd" d="M19.91 3.815c.49.948.41 2.168-.003 3.186L20 7a2 2 0 0 1 1.994 1.85L22 9v2a2 2 0 0 1-1.85 1.995L20 13v6a2 2 0 0 1-1.85 1.994L18 21H5.995A2 2 0 0 1 4 19.15L3.995 19v-6a1.999 1.999 0 0 1-1.99-1.85L2 11V9a2 2 0 0 1 1.85-1.995L4 7h.36c-.414-1.017-.494-2.237-.004-3.185.916-1.776 2.659-2.149 4.316-1.588l.184.067.058.024c1.41.643 2.485 1.684 3.22 3.093.733-1.41 1.808-2.45 3.218-3.093l.058-.024c1.711-.654 3.55-.321 4.5 1.52ZM18 13h-5.001l-.002 4h-2L11 13H5.995v6H18v-6Zm-6.999-4H4v2h7l.001-2ZM20 9h-6.999L13 11h7V9Zm-3.724-4.892-.127.045-.179.087c-1.038.534-1.806 1.397-2.31 2.626L13.606 7h4.027l-.068-.005c-.011-.004-.01-.01-.002-.022l.048-.05a2.22 2.22 0 0 0 .422-.625c.269-.578.307-1.163.099-1.566-.372-.722-1.055-.883-1.857-.624Zm-8.285 0c-.803-.26-1.486-.098-1.858.624-.208.403-.17.988.1 1.566a2.4 2.4 0 0 0 .332.53l.137.145.007.014-.008.008L6.632 7h4.027l-.052-.134c-.469-1.141-1.164-1.967-2.093-2.507l-.218-.119-.179-.087-.126-.045Z" clip-rule="evenodd"/>
</svg>
