<svg xmlns="http://www.w3.org/2000/svg" width="24" height="24" fill="none" viewBox="0 0 24 24">
  <path fill="#000" fill-rule="evenodd" d="M12 2a8 8 0 0 1 7.996 7.75l.005.421a2.997 2.997 0 0 1 1.963 2.38l.027.222L22 13v2a2.993 2.993 0 0 1-2.551 2.964l-.222.027L19 18h-1.126a4.002 4.002 0 0 1-3.674 2.995L14 21h-.667l-.333.5h-1.5a1.5 1.5 0 0 1 0-3H13l.333.5H14a2 2 0 0 0 1.995-1.85L16 17v-7h2a6 6 0 0 0-11.996-.225L6 10h2v8H5a2.993 2.993 0 0 1-2.964-2.551l-.027-.222L2 15v-2a2.993 2.993 0 0 1 2-2.825V10a8 8 0 0 1 8-8Zm7 10h-1v4.001h.955l.137-.005a.994.994 0 0 0 .615-.289.993.993 0 0 0 .284-.574L20 15l.001-1.955-.005-.137a.994.994 0 0 0-.289-.615.993.993 0 0 0-.574-.284L19 12Zm-13-.001h-.955l-.137.005a.994.994 0 0 0-.615.289.993.993 0 0 0-.284.574L4 13l-.001 1.955.005.137c.021.234.124.45.289.615a.993.993 0 0 0 .574.284L5 16h1v-4.001Z" clip-rule="evenodd"/>
</svg>
