<svg xmlns="http://www.w3.org/2000/svg" width="24" height="24" fill="none" viewBox="0 0 24 24">
  <path fill="#000" fill-rule="evenodd" d="M20.839 5.636a5.5 5.5 0 0 1 .174 7.596l-.174.182L12 22.254l-8.839-8.84a5.5 5.5 0 0 1 7.596-7.952l.182.174L12 6.696l1.062-1.06a5.5 5.5 0 0 1 7.778 0ZM14.625 6.91l-.15.141-2.476 2.475L9.525 7.05a3.5 3.5 0 0 0-4.655-.264l-.155.132-.14.132a3.5 3.5 0 0 0-.14 4.8l.14.15L12 19.425 19.425 12a3.5 3.5 0 0 0 .264-4.655l-.132-.155-.132-.14a3.5 3.5 0 0 0-4.645-.272l-.155.131Z" clip-rule="evenodd"/>
</svg>
