<svg xmlns="http://www.w3.org/2000/svg" width="24" height="24" fill="none" viewBox="0 0 24 24">
  <path fill="#000" fill-rule="evenodd" d="M9.127 13.621A2 2 0 0 0 9.5 12.46v-.918a2 2 0 0 0-.373-1.162L6.373 6.522A2 2 0 0 1 6 5.359V4a2 2 0 0 1 2-2h8a2 2 0 0 1 2 2v1.36a2 2 0 0 1-.372 1.162l-2.755 3.857a2 2 0 0 0-.373 1.162v.918a2 2 0 0 0 .373 1.162l2.755 3.857A2 2 0 0 1 18 18.642V20a2 2 0 0 1-2 2H8a2 2 0 0 1-2-2v-1.36a2 2 0 0 1 .373-1.162l2.754-3.857ZM8 4h8v1.36l-2.754 3.854h-2.492L8 5.36V4Z" clip-rule="evenodd"/>
  <path fill="#000" d="M16 4H8v1.36l2.754 3.854h2.492L16 5.36V4Z"/>
</svg>
