<svg xmlns="http://www.w3.org/2000/svg" width="24" height="24" fill="none" viewBox="0 0 24 24">
  <path fill="#000" d="M10.025 14h7.95c.217 0 .37-.092.462-.275.092-.183.071-.358-.062-.525l-2.425-3.175a.475.475 0 0 0-.4-.2c-.167 0-.3.067-.4.2l-1.9 2.475L12.1 11a.475.475 0 0 0-.4-.2c-.167 0-.3.067-.4.2l-1.675 2.2c-.133.167-.154.342-.063.525.092.183.246.275.463.275ZM8 18c-.55 0-1.02-.196-1.412-.587A1.926 1.926 0 0 1 6 16V4c0-.55.196-1.02.588-1.413A1.926 1.926 0 0 1 8 2h12c.55 0 1.02.196 1.413.587.39.393.587.863.587 1.413v12c0 .55-.196 1.02-.587 1.413A1.926 1.926 0 0 1 20 18H8Zm0-2h12V4H8v12Zm-4 6c-.55 0-1.02-.196-1.413-.587A1.926 1.926 0 0 1 2 20V7a.97.97 0 0 1 .288-.713A.968.968 0 0 1 3 6a.97.97 0 0 1 .712.287c.192.192.288.43.288.713v13h13c.283 0 .52.096.712.288.192.191.288.429.288.712s-.096.52-.288.712A.968.968 0 0 1 17 22H4Z"/>
</svg>
