<svg xmlns="http://www.w3.org/2000/svg" width="24" height="24" fill="none" viewBox="0 0 24 24">
  <path fill="#000" d="M19 2H5a3 3 0 0 0-3 3v14a3 3 0 0 0 3 3h14a2.78 2.78 0 0 0 .49-.05l.3-.07h.12l.37-.14.13-.07c.1-.06.21-.11.31-.18a3.78 3.78 0 0 0 .38-.32l.07-.09c.098-.1.188-.206.27-.32l.09-.13c.07-.111.13-.228.18-.35.027-.048.05-.098.07-.15.05-.12.08-.25.12-.38v-.15c.057-.195.09-.397.1-.6V5a3 3 0 0 0-3-3ZM5 20a1 1 0 0 1-1-1v-4.31l3.29-3.3a1 1 0 0 1 1.42 0l8.6 8.61H5Zm15-1a1 1 0 0 1-.07.36c-.023.049-.05.096-.08.14a.948.948 0 0 1-.09.12l-5.35-5.35.88-.88a1.002 1.002 0 0 1 1.42 0l3.29 3.3V19Zm0-5.14L18.12 12a3.08 3.08 0 0 0-4.24 0l-.88.88L10.12 10a3.08 3.08 0 0 0-4.24 0L4 11.86V5a1 1 0 0 1 1-1h14a1 1 0 0 1 1 1v8.86ZM13.5 6a1.5 1.5 0 1 0 0 3 1.5 1.5 0 0 0 0-3Z"/>
</svg>
