<svg xmlns="http://www.w3.org/2000/svg" width="24" height="24" fill="none" viewBox="0 0 24 24">
  <path fill="#000" fill-rule="evenodd" d="M12 7a5 5 0 1 0 0 10 5 5 0 0 0 0-10Zm-3 5a3 3 0 1 0 6 0 3 3 0 0 0-6 0Z" clip-rule="evenodd"/>
  <path fill="#000" d="M17.5 5.5a1 1 0 1 0 0 2 1 1 0 0 0 0-2Z"/>
  <path fill="#000" fill-rule="evenodd" d="M7 2a5 5 0 0 0-5 5v10a5 5 0 0 0 5 5h10a5 5 0 0 0 5-5V7a5 5 0 0 0-5-5H7Zm10 2H7a3 3 0 0 0-3 3v10a3 3 0 0 0 3 3h10a3 3 0 0 0 3-3V7a3 3 0 0 0-3-3Z" clip-rule="evenodd"/>
</svg>
