<svg xmlns="http://www.w3.org/2000/svg" width="24" height="24" fill="none" viewBox="0 0 24 24">
  <path fill="#000" d="M22.655 9.415C19.945 5.654 15.65 3.448 11.09 3.5c-4.586.004-8.247 3.84-8.247 8.5 0 .547.05 1.083.147 1.602 2.3-2.442 5.524-4.712 10.443-5.459l.989-.15.3 1.977-.989.15c-5.074.77-9.442 4-12.062 8.365l-.514.858 1.715 1.029.514-.858a14.47 14.47 0 0 1 1.437-1.99C6.332 19.34 8.575 20.5 11.097 20.5c3.468 0 5.569-2.24 7.132-4.418.394-.55.766-1.112 1.119-1.648l.023-.035c.348-.528.677-1.027 1.009-1.49.69-.964 1.314-1.66 1.972-2.049a1 1 0 0 0 .303-1.445Z"/>
</svg>
