<svg xmlns="http://www.w3.org/2000/svg" width="24" height="24" fill="none" viewBox="0 0 24 24">
  <path fill="#000" fill-rule="evenodd" d="M22.811 8.915C20.102 5.154 15.806 2.948 11.248 3 6.66 3.004 3 6.84 3 11.5c0 1.027.178 2.014.504 2.929a16.354 16.354 0 0 0-2.361 3.055l-.515.858 1.715 1.029.515-.858a14.416 14.416 0 0 1 1.605-2.183C5.947 18.541 8.425 20 11.253 20c3.469 0 5.57-2.24 7.133-4.418.394-.55.766-1.112 1.119-1.648l.023-.035c.348-.528.677-1.027 1.009-1.49.69-.964 1.314-1.66 1.971-2.049a1 1 0 0 0 .303-1.445ZM5.928 14.91C7.035 16.772 9.018 18 11.254 18c2.441 0 4.02-1.512 5.507-3.584.368-.513.719-1.044 1.074-1.583l.033-.05a49.23 49.23 0 0 1 1.042-1.538c.496-.692 1.042-1.378 1.672-1.937-2.343-2.77-5.745-4.35-9.316-4.307h-.012C7.83 5 5 7.879 5 11.5c0 .504.055.995.159 1.465a15.309 15.309 0 0 1 6.667-2.95l.985-.174.347 1.97-.984.173a13.351 13.351 0 0 0-6.246 2.926Z" clip-rule="evenodd"/>
</svg>
