<svg xmlns="http://www.w3.org/2000/svg" width="24" height="24" fill="none" viewBox="0 0 24 24">
  <path fill="#000" fill-rule="evenodd" d="m18.848 7.765-.06.13-.814 1.626a4.753 4.753 0 0 0-1.107-.151c-.312 0-.681.038-1.11.116L17 7 5 13l5 1 1 5 1.237-2.477h2.236l-1.684 3.371c-.827 1.654-3.23 1.384-3.712-.341l-.038-.16-.74-3.693-3.691-.739c-1.758-.351-2.16-2.609-.782-3.583l.135-.087.145-.08 12-6c1.632-.816 3.358.786 2.793 2.422l-.05.132h-.001Zm-2.601 10.939c.317 0 .588.11.812.329.224.22.336.488.336.805 0 .317-.112.59-.336.819a1.095 1.095 0 0 1-.812.343c-.327 0-.602-.112-.826-.336a1.123 1.123 0 0 1-.336-.826c0-.317.112-.586.336-.805.224-.22.5-.329.826-.329Zm.196-7.42c.877 0 1.584.252 2.12.756.537.504.806 1.162.806 1.974 0 .373-.066.712-.196 1.015-.13.303-.264.527-.4.672l-.086.09-.21.198-.316.274-.245.194-.06.056-.052.054-.204.19-.058.064-.112.154a.713.713 0 0 0-.105.189c-.022.065-.04.13-.056.196a.919.919 0 0 0-.028.224v.364h-2.058v-.49c0-.336.067-.646.203-.931.135-.285.268-.488.399-.609l.296-.264.32-.275.396-.326.052-.045a.819.819 0 0 0 .147-.154l.028-.042.084-.112a.503.503 0 0 0 .098-.182l.049-.189a.841.841 0 0 0 .028-.217c0-.28-.082-.506-.245-.679-.164-.173-.38-.259-.651-.259a.893.893 0 0 0-.686.287 1.02 1.02 0 0 0-.266.721v.238h-2.072v-.238c0-.85.287-1.545.86-2.086.575-.541 1.314-.812 2.22-.812Z" clip-rule="evenodd"/>
</svg>
