<svg xmlns="http://www.w3.org/2000/svg" width="24" height="24" fill="none" viewBox="0 0 24 24">
  <path fill="#000" d="M7.5 19.5c-.412 0-.766-.14-1.06-.42A1.344 1.344 0 0 1 6 18.071V10.93c0-.393.147-.73.44-1.01a1.48 1.48 0 0 1 1.06-.419h.75v-1.43c0-.988.366-1.83 1.097-2.526C10.078 4.848 10.963 4.5 12 4.5s1.922.348 2.653 1.045c.731.696 1.097 1.538 1.097 2.526V9.5h.75c.413 0 .766.14 1.06.42.293.28.44.616.44 1.009v7.142c0 .393-.147.73-.44 1.01a1.48 1.48 0 0 1-1.06.419h-9Zm0-1.429h9V10.93h-9v7.142ZM12 15.93c.412 0 .766-.14 1.06-.42.293-.28.44-.616.44-1.009 0-.393-.147-.73-.44-1.009a1.481 1.481 0 0 0-1.06-.42c-.412 0-.766.14-1.06.42-.293.28-.44.616-.44 1.009 0 .393.147.73.44 1.009.294.28.648.42 1.06.42ZM9.75 9.5h4.5V8.071c0-.595-.219-1.1-.656-1.517A2.226 2.226 0 0 0 12 5.929c-.625 0-1.156.208-1.594.625A2.018 2.018 0 0 0 9.75 8.07V9.5Z"/>
</svg>
