<svg xmlns="http://www.w3.org/2000/svg" width="24" height="24" fill="none" viewBox="0 0 24 24">
  <path fill="#000" d="m9.426 13.867.956-3.18-2.624-1.918h3.216L12 5.383l1 3.386h3.242l-2.6 1.918.932 3.18L12 11.893l-2.574 1.974Zm-3.66 9.589v-7.933c-.77-.814-1.326-1.717-1.669-2.708a8.932 8.932 0 0 1-.514-2.934c0-2.374.81-4.37 2.43-5.986 1.619-1.617 3.616-2.425 5.99-2.425 2.375 0 4.372.808 5.99 2.425 1.62 1.617 2.43 3.612 2.43 5.986 0 .966-.17 1.944-.508 2.934-.339.991-.9 1.894-1.682 2.708v7.933L12 21.342l-6.233 2.114Zm6.235-7.09c1.813 0 3.346-.628 4.601-1.882s1.882-2.788 1.882-4.602c0-1.814-.628-3.347-1.883-4.6-1.256-1.253-2.79-1.88-4.602-1.88-1.813 0-3.347.628-4.601 1.883-1.255 1.255-1.882 2.788-1.882 4.6 0 1.815.627 3.348 1.883 4.601 1.255 1.253 2.79 1.88 4.602 1.88Zm-4.44 4.549L12 19.548l4.438 1.367v-3.961a7.1 7.1 0 0 1-2.18 1.031 8.479 8.479 0 0 1-2.258.318 8.48 8.48 0 0 1-2.259-.318 7.1 7.1 0 0 1-2.18-1.031v3.96Z"/>
</svg>
