<svg xmlns="http://www.w3.org/2000/svg" width="24" height="24" fill="none" viewBox="0 0 24 24">
  <path fill="#000" d="m9.675 13.7.875-2.85L8.25 9h2.85l.9-2.8.9 2.8h2.85l-2.325 1.85.875 2.85-2.3-1.775L9.675 13.7ZM6 23v-7.725a7.707 7.707 0 0 1-1.475-2.4A7.862 7.862 0 0 1 4 10c0-2.233.775-4.125 2.325-5.675C7.875 2.775 9.767 2 12 2c2.233 0 4.125.775 5.675 2.325C19.225 5.875 20 7.767 20 10a7.862 7.862 0 0 1-.525 2.875c-.35.9-.842 1.7-1.475 2.4V23l-6-2-6 2Zm6-7c1.667 0 3.083-.583 4.25-1.75C17.417 13.083 18 11.667 18 10c0-1.667-.583-3.083-1.75-4.25C15.083 4.583 13.667 4 12 4c-1.667 0-3.083.583-4.25 1.75C6.583 6.917 6 8.333 6 10c0 1.667.583 3.083 1.75 4.25C8.917 15.417 10.333 16 12 16Z"/>
</svg>
