<svg width="24" height="24" viewBox="0 0 24 24" fill="none" xmlns="http://www.w3.org/2000/svg">
<path d="M9.42593 13.8668L10.3819 10.6869L7.75801 8.76902H10.9738L11.9999 5.38314L13.0009 8.76902H16.2417L13.6428 10.6869L14.5738 13.8668L11.9999 11.8929L9.42593 13.8668ZM5.76671 23.456V15.5228C4.99677 14.7087 4.44034 13.8062 4.09741 12.8154C3.75447 11.8246 3.58301 10.8465 3.58301 9.88097C3.58301 7.50703 4.39282 5.51174 6.01243 3.89509C7.63203 2.27843 9.629 1.47009 12.0033 1.47009C14.3777 1.47009 16.3745 2.27843 17.9938 3.89509C19.613 5.51174 20.4227 7.50703 20.4227 9.88097C20.4227 10.8465 20.2534 11.8246 19.9148 12.8154C19.5762 13.8062 19.0156 14.7087 18.233 15.5228V23.456L11.9999 21.3418L5.76671 23.456ZM12.001 16.3652C13.8137 16.3652 15.3473 15.7381 16.602 14.4839C17.8567 13.2297 18.4841 11.6956 18.4841 9.88172C18.4841 8.06782 17.8564 6.53451 16.6009 5.28179C15.3454 4.02908 13.8113 3.40272 11.9987 3.40272C10.1861 3.40272 8.6524 4.03016 7.39768 5.28504C6.14297 6.53993 5.51561 8.07323 5.51561 9.88497C5.51561 11.6997 6.14336 13.2334 7.39886 14.4861C8.65436 15.7389 10.1884 16.3652 12.001 16.3652ZM7.56181 20.9147L11.9999 19.5478L16.4379 20.9147V16.9538C15.7546 17.4292 15.0282 17.7729 14.2587 17.985C13.4892 18.1971 12.7363 18.3031 11.9999 18.3031C11.2635 18.3031 10.5105 18.1971 9.74103 17.985C8.97155 17.7729 8.24514 17.4292 7.56181 16.9538V20.9147Z" fill="black"/>
</svg>
