<svg xmlns="http://www.w3.org/2000/svg" width="24" height="24" fill="none" viewBox="0 0 24 24">
  <path fill="#000" fill-rule="evenodd" d="m3.63 3.65 17.689 17.665-1.414 1.414-4.497-4.49c-.76.36-1.573.596-2.408.7V22h-2v-3.062a8.002 8.002 0 0 1-6.996-7.689L4 11h2a6 6 0 0 0 7.869 5.703l-1.708-1.706L12 15a4 4 0 0 1-3.995-3.8L8 11v-.16L2.215 5.064 3.629 3.65ZM20 11c0 1.756-.566 3.38-1.526 4.7l-1.436-1.44a5.97 5.97 0 0 0 .958-3.035L18 11h2Zm-8-9a4 4 0 0 1 3.995 3.8L16 6v5c0 .646-.153 1.255-.424 1.795l-1.586-1.591.005-.055L14 11V6a2 2 0 0 0-3.995-.15L10 6v1.205L8.067 5.267A4.001 4.001 0 0 1 12 2Z" clip-rule="evenodd"/>
</svg>
