<svg xmlns="http://www.w3.org/2000/svg" width="24" height="24" fill="none" viewBox="0 0 24 24">
  <path fill="#000" d="m3.387 7.874-1.45-.656c-.088-.037-.131-.11-.131-.218s.043-.18.13-.218l1.451-.67.664-1.45c.038-.083.107-.125.206-.125.1 0 .176.042.23.125l.661 1.45 1.434.67c.091.037.137.11.137.218s-.046.18-.137.218l-1.434.656-.661 1.433c-.054.104-.13.156-.23.156s-.168-.052-.206-.156l-.664-1.433Zm14.378-3.116-.726-.338c-.108-.039-.162-.11-.162-.213s.054-.186.162-.248l.726-.319.344-.75c.035-.084.104-.126.209-.126.104 0 .188.042.252.125l.319.745.745.325a.288.288 0 0 1 .13.247c0 .103-.043.174-.13.214l-.751.338-.313.726c-.062.104-.145.156-.25.156-.105 0-.175-.052-.211-.156l-.344-.726Zm2.43 4.798-.751-.338c-.092-.039-.137-.11-.137-.213s.045-.186.137-.248l.745-.325.313-.745c.048-.083.127-.125.238-.125.11 0 .186.042.229.125l.344.751.726.32a.292.292 0 0 1 .125.246c0 .102-.042.174-.125.214l-.726.338-.344.726c-.042.104-.118.156-.227.156-.11 0-.19-.052-.24-.156l-.307-.726Zm-8.191 5.25c-.826 0-1.514-.293-2.064-.882-.549-.588-.823-1.298-.823-2.132V5.528c0-.797.277-1.473.832-2.027.556-.555 1.238-.832 2.048-.832s1.494.277 2.053.832c.56.554.84 1.23.84 2.027v6.264c0 .834-.274 1.544-.823 2.132-.55.588-1.237.883-2.063.883Zm-.007 7.768a.905.905 0 0 1-.66-.27.915.915 0 0 1-.274-.678V19.17c-1.69-.163-3.158-.839-4.404-2.028s-1.968-2.612-2.167-4.27a1.046 1.046 0 0 1 .211-.759c.166-.214.422-.321.768-.321.22 0 .412.076.577.228a.9.9 0 0 1 .291.559 5.356 5.356 0 0 0 1.902 3.449c1.073.908 2.325 1.362 3.76 1.362 1.433 0 2.686-.454 3.758-1.362a5.356 5.356 0 0 0 1.902-3.45.89.89 0 0 1 .3-.558.897.897 0 0 1 .618-.228c.3 0 .54.11.718.33.18.222.25.478.212.77-.237 1.653-.964 3.072-2.18 4.257-1.217 1.184-2.685 1.858-4.405 2.02v2.456c0 .274-.09.5-.27.68-.18.18-.4.27-.657.27Z"/>
</svg>
