<svg xmlns="http://www.w3.org/2000/svg" width="24" height="24" fill="none" viewBox="0 0 24 24">
  <path fill="#000" d="M6 11a6 6 0 0 0 8.544 5.44l-1.631-1.546A4 4 0 0 1 8.005 11.2L8 11v-.759L2.57 5.1l1.376-1.453L21.582 20.35l-1.375 1.452-4.135-3.916a8.001 8.001 0 0 1-3.071 1.052L12.998 22h-2v-3.062a8.002 8.002 0 0 1-6.995-7.689L4 11h2Zm12.897 4.053-1.502-1.422a6 6 0 0 0 .6-2.406L18 11h2a8 8 0 0 1-1.103 4.053ZM8.158 4.884l7.673 7.266c.11-.37.168-.757.168-1.15V6l-.005-.2a4 4 0 0 0-7.836-.916Z"/>
</svg>
