<svg xmlns="http://www.w3.org/2000/svg" width="24" height="24" fill="none" viewBox="0 0 24 24">
  <path fill="#000" d="M6.2 18c-1.162 0-2.153-.418-2.972-1.255S2 14.896 2 13.709c0-1.188.41-2.2 1.228-3.036.82-.837 1.81-1.256 2.972-1.256h9.676l-1.963-2.022h-3.115V6h3.683l3.325 3.417c1.251.011 2.263.452 3.035 1.323.773.871 1.159 1.864 1.159 2.98 0 1.186-.41 2.196-1.23 3.03-.82.833-1.812 1.25-2.976 1.25-1.152 0-2.135-.418-2.947-1.255-.813-.837-1.22-1.849-1.22-3.036 0-.22.013-.442.038-.67.026-.228.08-.445.166-.65l-2.156 2.203h-1.368c-.202 1.005-.686 1.824-1.452 2.457A4.044 4.044 0 0 1 6.2 18Zm11.6-1.39c.787 0 1.459-.283 2.012-.848.554-.565.83-1.25.83-2.053 0-.804-.274-1.488-.825-2.053a2.696 2.696 0 0 0-2.006-.848 2.68 2.68 0 0 0-2.004.853 2.84 2.84 0 0 0-.823 2.045c0 .795.272 1.478.816 2.048a2.66 2.66 0 0 0 2 .856Zm-11.6 0a2.82 2.82 0 0 0 1.681-.556c.516-.37.874-.928 1.073-1.672H6.61v-1.335h2.344c-.184-.743-.54-1.302-1.064-1.677-.525-.375-1.089-.562-1.69-.562-.795 0-1.468.282-2.02.847s-.828 1.25-.828 2.053c0 .804.276 1.489.829 2.054a2.716 2.716 0 0 0 2.019.848Z"/>
</svg>
