<svg xmlns="http://www.w3.org/2000/svg" width="24" height="24" fill="none" viewBox="0 0 24 24">
  <path fill="#000" fill-rule="evenodd" d="M11.167 5.942A1.963 1.963 0 0 0 13.12 3.97c0-1.088-.875-1.97-1.953-1.97a1.962 1.962 0 0 0-1.953 1.97c0 1.09.875 1.972 1.953 1.972ZM8.3 10.072v1.848a4.364 4.364 0 0 0-2.58 3.986c0 2.403 1.937 4.358 4.318 4.358 1.967 0 3.628-1.335 4.147-3.154l.648-.005.682 1.351C14.556 20.544 12.465 22 10.038 22 6.708 22 4 19.266 4 15.906a6.096 6.096 0 0 1 4.3-5.833Zm2.867-3.304c1.191 0 1.72 1.017 1.72 1.736v2.615h2.883c.476 0 .86.39.86.869a.85.85 0 0 1-.174.497.843.843 0 0 1-.686.37h-2.883v.772h3.35c.432 0 .827.244 1.022.632l2.616 5.19a1.16 1.16 0 0 1-.502 1.557 1.144 1.144 0 0 1-1.542-.507l-2.297-4.558h-4.332c-.97 0-1.755-.793-1.755-1.77V8.503c0-.958.77-1.736 1.72-1.736Z" clip-rule="evenodd"/>
</svg>
