<svg xmlns="http://www.w3.org/2000/svg" width="24" height="24" fill="none" viewBox="0 0 24 24">
  <path fill="#000" fill-rule="evenodd" d="M13 21v2h-2v-2h2ZM12 1a8 8 0 0 1 8 8c0 2.88-1.59 5.417-4.128 6.983l-.523.313a8.208 8.208 0 0 0-.487.327c-.795.578-1.297 1.17-1.59 1.76l-.03.066-.067.172-.228.647-.066.167a.807.807 0 0 1-.085.163l-.047.055-.08.087a.49.49 0 0 1-.165.106l-.08.029-.173.05-.251.063-.345-.089c-.16-.046-.237-.08-.308-.144l-.053-.053-.09-.103a.55.55 0 0 1-.054-.095l-.063-.147-.033-.088-.23-.65-.035-.092-.063-.146c-.297-.594-.804-1.19-1.608-1.771a8.312 8.312 0 0 0-.482-.322l-.518-.31C5.583 14.415 4 11.88 4 9a8 8 0 0 1 8-8Zm0 2a6 6 0 0 0-6 6c0 2.134 1.181 4.038 3.136 5.256l.558.334c.208.13.406.262.594.398.61.44 1.106.905 1.501 1.387l.21.271.205-.265c.285-.346.601-.665.944-.954l.282-.229.257-.193c.19-.139.392-.274.603-.406l.564-.338C16.812 13.04 18 11.133 18 9a6 6 0 0 0-6-6Zm2.121 2.481 1.415 1.415-2.122 2.12 2.122 2.122-1.415 1.414L12 10.431l-2.121 2.121-1.415-1.414 2.122-2.121-2.122-2.121L9.88 5.48 12 7.603l2.121-2.122Z" clip-rule="evenodd"/>
</svg>
