<svg width="24" height="24" viewBox="0 0 24 24" fill="none" xmlns="http://www.w3.org/2000/svg">
<g clip-path="url(#clip0_639_2197)">
<path d="M21.4479 9.45679L14.9942 3C14.6595 3.32867 14.41 3.69156 14.2456 4.08874C14.0814 4.48591 13.9992 4.89219 13.9992 5.30753C13.9992 5.71681 14.0819 6.12003 14.2472 6.51721L10.2188 10.5425C9.88016 10.3671 9.52784 10.235 9.1619 10.1463C8.79595 10.0576 8.42451 10.0132 8.04747 10.0132C7.45469 10.0132 6.88112 10.1206 6.32668 10.3353C5.77219 10.5501 5.27726 10.8741 4.84174 11.3076L8.27427 14.7311L6.07111 17.2669L4.41837 19.2705L3.37347 20.6646C3.13056 21.0235 3.00905 21.2594 3.00905 21.3723L3 21.4207L3.01816 21.4298V21.46L3.03626 21.4388L3.07558 21.4479C3.18849 21.4479 3.42439 21.3285 3.78326 21.0895L5.17747 20.0507L7.181 18.3919L9.72895 16.1857L13.1403 19.6062C13.5758 19.1706 13.9004 18.6757 14.1141 18.1212C14.3278 17.5668 14.4347 16.9942 14.4347 16.4035C14.4347 16.0244 14.3908 15.6525 14.3031 15.2875C14.2154 14.9226 14.0828 14.5698 13.9059 14.2291L17.9307 10.2037C18.3279 10.3671 18.7311 10.4487 19.1404 10.4487C19.5577 10.4487 19.9645 10.3665 20.3607 10.2023C20.7568 10.0379 21.1193 9.78942 21.4479 9.45679Z" fill="black"/>
</g>
<defs>
<clipPath id="clip0_639_2197">
<rect width="24" height="24" fill="white"/>
</clipPath>
</defs>
</svg>
