<svg xmlns="http://www.w3.org/2000/svg" width="24" height="24" fill="none" viewBox="0 0 24 24">
  <path fill="#000" d="M11.78 4c1.93 0 3.68.78 4.95 2.05l-1.41 1.41a5.022 5.022 0 0 0-7.08 0L6.83 6.05A6.976 6.976 0 0 1 11.78 4Zm7.78-.77-1.41 1.41A8.972 8.972 0 0 0 11.79 2C9.31 2 7.05 3.01 5.42 4.63L4 3.22C6 1.23 8.75 0 11.79 0s5.78 1.23 7.77 3.23ZM11.78 11c1.94 0 4 1.45 4 4.15 0 .94-.55 2.93-4 6.17-3.45-3.24-4-5.23-4-6.17 0-2.7 2.06-4.15 4-4.15Zm0-2c-3.15 0-6 2.41-6 6.15 0 2.49 2 5.44 6 8.85 4-3.41 6-6.36 6-8.85 0-3.74-2.85-6.15-6-6.15Zm1.5 6c0-.83-.67-1.5-1.5-1.5s-1.5.67-1.5 1.5.67 1.5 1.5 1.5 1.5-.67 1.5-1.5Z"/>
</svg>
