<svg xmlns="http://www.w3.org/2000/svg" width="24" height="24" fill="none" viewBox="0 0 24 24">
  <path fill="#000" fill-rule="evenodd" d="M13 21v2h-2v-2h2ZM12 1a8 8 0 0 1 8 8c0 2.88-1.59 5.417-4.128 6.983l-.523.313a8.264 8.264 0 0 0-.487.327c-.796.578-1.297 1.17-1.59 1.76l-.03.066-.067.172-.228.648-.066.166a.806.806 0 0 1-.085.163l-.047.056-.08.086a.49.49 0 0 1-.165.106l-.08.029-.173.05-.251.063-.345-.089c-.16-.046-.237-.08-.308-.144l-.053-.053-.09-.103a.54.54 0 0 1-.054-.095l-.063-.147-.033-.088-.23-.65-.035-.092-.063-.146c-.297-.594-.804-1.19-1.608-1.771a8.314 8.314 0 0 0-.482-.322l-.518-.31C5.583 14.415 4 11.88 4 9a8 8 0 0 1 8-8Zm0 5a3 3 0 1 1 0 6 3 3 0 0 1 0-6Z" clip-rule="evenodd"/>
</svg>
