<svg xmlns="http://www.w3.org/2000/svg" width="24" height="24" fill="none" viewBox="0 0 24 24">
  <path fill="#000" fill-rule="evenodd" d="M13 23v-2h-2v2h2Zm7-14A8 8 0 1 0 4 9c0 2.88 1.583 5.415 4.118 6.978l.518.31c.17.105.33.213.482.322.804.58 1.311 1.177 1.608 1.77l.063.147.035.093.23.65.033.087.063.147a.54.54 0 0 0 .055.095l.089.103.053.053c.071.064.147.098.308.144l.345.089.25-.064.175-.05.08-.028a.49.49 0 0 0 .164-.106l.08-.086.047-.056a.806.806 0 0 0 .085-.163l.066-.166.228-.648.067-.172.03-.065c.293-.59.794-1.183 1.59-1.761.153-.111.315-.22.487-.327l.523-.313C18.41 14.417 20 11.88 20 9Zm-6.586.016 2.122-2.12-1.415-1.415L12 7.603 9.88 5.48 8.464 6.896l2.122 2.121-2.122 2.121 1.415 1.414L12 10.431l2.121 2.121 1.415-1.414-2.122-2.122Z" clip-rule="evenodd"/>
</svg>
