<svg width="24" height="24" viewBox="0 0 24 24" fill="none" xmlns="http://www.w3.org/2000/svg">
<g clip-path="url(#clip0_24_212)">
<path fill-rule="evenodd" clip-rule="evenodd" d="M4.2126 14.183C1.88591 14.183 -0.00012207 16.0448 -0.00012207 18.3415C-0.00012207 20.6383 1.88591 22.5 4.2126 22.5C6.47237 22.5 8.31403 20.7437 8.42047 18.5403H15.5791C15.6841 20.7445 17.5265 22.5 19.7871 22.5C22.1138 22.5 23.9998 20.6382 23.9998 18.3415C23.9998 16.0448 22.1138 14.183 19.7871 14.183C19.4487 14.183 19.1196 14.2224 18.8044 14.2968L15.1353 8.65344C15.9306 7.89702 16.4253 6.8348 16.4253 5.65848C16.4253 3.36175 14.5393 1.5 12.2126 1.5C9.88591 1.5 7.99988 3.36175 7.99988 5.65848C7.99988 6.70359 8.39019 7.65872 9.035 8.38931L5.19433 14.2966C4.87934 14.2223 4.55062 14.183 4.2126 14.183ZM4.2126 16.1573C2.99048 16.1573 1.99988 17.1351 1.99988 18.3415C1.99988 19.5479 2.99048 20.5258 4.2126 20.5258C5.43407 20.5258 6.42444 19.5484 6.42533 18.341C6.42496 17.1349 5.4345 16.1573 4.2126 16.1573ZM19.7871 16.1573C18.5649 16.1573 17.5743 17.1351 17.5743 18.3415C17.5743 19.5481 18.564 20.5257 19.7871 20.5257C21.0092 20.5257 21.9998 19.5479 21.9998 18.3415C21.9998 17.1351 21.0092 16.1573 19.7871 16.1573ZM12.2126 3.47424C10.9905 3.47424 9.99988 4.45209 9.99988 5.65848C9.99988 6.86511 10.9895 7.84271 12.2126 7.84271C13.4347 7.84271 14.4253 6.86487 14.4253 5.65848C14.4253 4.45209 13.4347 3.47424 12.2126 3.47424ZM6.97966 15.2058C7.41585 15.5811 7.77299 16.0437 8.02317 16.566H15.9765C16.2265 16.044 16.5834 15.5816 17.0193 15.2064L13.4054 9.64793C13.0272 9.75793 12.6269 9.81695 12.2126 9.81695C11.668 9.81695 11.1477 9.71507 10.6701 9.52958L6.97966 15.2058Z" fill="black"/>
</g>
<defs>
<clipPath id="clip0_24_212">
<rect width="24" height="24" fill="white"/>
</clipPath>
</defs>
</svg>
