<svg width="24" height="24" viewBox="0 0 24 24" fill="none" xmlns="http://www.w3.org/2000/svg">
<g clip-path="url(#clip0_24_215)">
<path fill-rule="evenodd" clip-rule="evenodd" d="M4.21272 14.183C1.88603 14.183 0 16.0448 0 18.3415C0 20.6383 1.88603 22.5 4.21272 22.5C6.4725 22.5 8.31415 20.7437 8.42059 18.5403H15.5792C15.6842 20.7445 17.5266 22.5 19.7872 22.5C22.1139 22.5 23.9999 20.6382 23.9999 18.3415C23.9999 16.0448 22.1139 14.183 19.7872 14.183C19.4488 14.183 19.1198 14.2224 18.8045 14.2968L15.1354 8.65344C15.9307 7.89702 16.4254 6.8348 16.4254 5.65848C16.4254 3.36175 14.5394 1.5 12.2127 1.5C9.88603 1.5 8 3.36175 8 5.65848C8 6.70359 8.39032 7.65872 9.03512 8.38931L5.19445 14.2966C4.87946 14.2223 4.55074 14.183 4.21272 14.183ZM13.4055 9.64793C13.0273 9.75793 12.627 9.81695 12.2127 9.81695C11.6681 9.81695 11.1478 9.71507 10.6702 9.52958L6.97978 15.2058C7.41597 15.5811 7.77311 16.0437 8.02329 16.566H15.9766C16.2267 16.044 16.5835 15.5816 17.0194 15.2064L13.4055 9.64793Z" fill="black"/>
</g>
<defs>
<clipPath id="clip0_24_215">
<rect width="24" height="24" fill="white"/>
</clipPath>
</defs>
</svg>
