<svg width="24" height="24" viewBox="0 0 24 24" fill="none" xmlns="http://www.w3.org/2000/svg">
<g clip-path="url(#clip0_349_8779)">
<path fill-rule="evenodd" clip-rule="evenodd" d="M4.88558 6.80206C4.028 6.80206 3.30036 7.01447 2.76803 7.50136C2.2307 7.99201 2 8.70471 2 9.55163V14.4484C2 15.2961 2.23091 16.0103 2.76427 16.5089L2.77158 16.5154C3.30401 16.9912 4.03026 17.1979 4.88558 17.1979H6.81708C7.05854 17.1979 7.25429 17.0022 7.25429 16.7607V15.727C7.25429 15.4855 7.05854 15.2898 6.81708 15.2898H4.74956C4.50713 15.2898 4.34976 15.2209 4.23565 15.1118C4.11074 14.9923 4.0578 14.8651 4.0578 14.7068V9.29319C4.0578 9.13491 4.11074 9.0077 4.23565 8.88822C4.34976 8.77907 4.50713 8.71024 4.74956 8.71024H6.81708C7.05854 8.71024 7.25429 8.51449 7.25429 8.27303V7.23927C7.25429 6.99781 7.05854 6.80206 6.81708 6.80206H4.88558ZM11.7008 6.80206C10.8431 6.80206 10.1155 7.01449 9.58315 7.50141C9.04586 7.99206 8.81517 8.70473 8.81517 9.55163V14.4484C8.81517 15.2961 9.04608 16.0103 9.57944 16.5089L9.58675 16.5154C10.1192 16.9912 10.8454 17.1979 11.7008 17.1979H12.2448C13.0994 17.1979 13.8242 16.9912 14.349 16.512C14.8933 16.0141 15.1304 15.2988 15.1304 14.4484V9.55163C15.1304 8.70385 14.8946 7.99133 14.3489 7.50143C13.8244 7.01329 13.0999 6.80206 12.2448 6.80206H11.7008ZM17.3461 6.80206C17.1047 6.80206 16.9089 6.99781 16.9089 7.23927V8.27303C16.9089 8.5145 17.1047 8.71024 17.3461 8.71024H18.9784C19.2208 8.71024 19.3782 8.77907 19.4923 8.88822C19.6172 9.0077 19.6702 9.13491 19.6702 9.29319V10.2453C19.6702 10.5813 19.652 10.8099 19.6242 10.9485C19.5991 11.0742 19.5471 11.2089 19.4604 11.3534L19.4589 11.356L19.457 11.3593C19.3675 11.5139 19.1819 11.7953 18.8915 12.2128L16.6369 15.4256V17.1979H21.5628C21.8043 17.1979 22 17.0022 22 16.7607V15.727C22 15.4855 21.8043 15.2898 21.5628 15.2898H19.1708L20.6958 13.1363L20.6972 13.1343C20.9717 12.7407 21.1781 12.4208 21.3079 12.181C21.4477 11.923 21.5511 11.6349 21.622 11.321C21.6955 10.9956 21.728 10.5925 21.728 10.1229V9.55163C21.728 8.70388 21.4922 7.99138 20.9465 7.50148C20.422 7.0133 19.6974 6.80206 18.8424 6.80206H17.3461ZM11.0508 8.88822C11.1649 8.77907 11.3223 8.71024 11.5647 8.71024H12.3809C12.6233 8.71024 12.7807 8.77907 12.8948 8.88822C13.0197 9.0077 13.0726 9.13491 13.0726 9.29319V14.7068C13.0726 14.8651 13.0197 14.9923 12.8948 15.1118C12.7807 15.2209 12.6233 15.2898 12.3809 15.2898H11.5647C11.3223 15.2898 11.1649 15.2209 11.0508 15.1118C10.9259 14.9923 10.873 14.8651 10.873 14.7068V9.29319C10.873 9.13491 10.9259 9.0077 11.0508 8.88822Z" fill="black"/>
</g>
<defs>
<clipPath id="clip0_349_8779">
<rect width="24" height="24" fill="white"/>
</clipPath>
</defs>
</svg>
