<svg xmlns="http://www.w3.org/2000/svg" width="24" height="24" fill="none" viewBox="0 0 24 24">
  <path fill="#000" d="M21.448 9.457 14.994 3a3.28 3.28 0 0 0-.748 1.089 3.163 3.163 0 0 0-.247 1.219c0 .409.083.812.248 1.21l-4.028 4.025a4.696 4.696 0 0 0-2.172-.53c-.592 0-1.166.108-1.72.322a4.278 4.278 0 0 0-1.485.973l3.432 3.423-2.203 2.536-1.653 2.003-1.045 1.395c-.242.358-.364.594-.364.707L3 21.421l.018.009v.03l.018-.021.04.009c.112 0 .348-.12.707-.358l1.394-1.04 2.004-1.658 2.548-2.206 3.411 3.42c.436-.435.76-.93.974-1.485a4.76 4.76 0 0 0 .189-2.834 4.647 4.647 0 0 0-.397-1.058l4.025-4.025c.397.163.8.245 1.21.245a3.16 3.16 0 0 0 1.22-.247 3.306 3.306 0 0 0 1.087-.745Z"/>
</svg>
