<svg xmlns="http://www.w3.org/2000/svg" width="24" height="24" fill="none" viewBox="0 0 24 24">
  <path fill="#000" d="M12.159 17.5c-.307 0-.568-.11-.783-.33a1.101 1.101 0 0 1-.324-.8 1.1 1.1 0 0 1 .324-.8c.216-.22.476-.33.783-.33.305 0 .566.11.782.33a1.1 1.1 0 0 1 .324.8c0 .312-.108.579-.324.8-.216.22-.477.33-.783.33Zm-.027-3.501a.785.785 0 0 1-.54-.22 1.096 1.096 0 0 1-.324-.607 1.292 1.292 0 0 0-.297-.648 18.124 18.124 0 0 0-.837-.896 5.078 5.078 0 0 1-.81-1.075A2.5 2.5 0 0 1 9 9.312c0-.937.31-1.64.931-2.109.621-.469 1.355-.703 2.2-.703.63 0 1.175.147 1.634.441.459.294.832.662 1.12 1.103a.691.691 0 0 1 .068.634c-.082.22-.248.377-.5.469a.689.689 0 0 1-.54 0 1.137 1.137 0 0 1-.486-.414 1.82 1.82 0 0 0-.526-.496c-.207-.129-.464-.193-.77-.193-.486 0-.85.138-1.093.413-.243.276-.364.58-.364.91 0 .313.09.593.27.841.18.248.396.5.647.758.505.441.842.8 1.013 1.075.17.276.274.653.31 1.13a.732.732 0 0 1-.202.58.757.757 0 0 1-.58.248Z"/>
</svg>
