<svg xmlns="http://www.w3.org/2000/svg" width="24" height="24" fill="none" viewBox="0 0 24 24">
  <path fill="#000" d="M17.5 15.62c-.76 0-1.448.255-2.007.664l-6.527-3.799c.02-.141.034-.29.034-.445 0-.155-.014-.304-.034-.445l6.444-3.757a3.465 3.465 0 0 0 2.09.702c1.936 0 3.5-1.564 3.5-3.5s-1.564-3.5-3.5-3.5a3.496 3.496 0 0 0-3.5 3.5c0 .155.014.304.034.445L7.591 9.242A3.465 3.465 0 0 0 5.5 8.54a3.496 3.496 0 0 0-3.5 3.5c0 1.936 1.564 3.5 3.5 3.5.789 0 1.508-.265 2.09-.701l6.516 3.806c-.017.13-.026.262-.026.395a3.423 3.423 0 0 0 3.42 3.42 3.423 3.423 0 0 0 3.42-3.42 3.423 3.423 0 0 0-3.42-3.42Z"/>
</svg>
