<svg xmlns="http://www.w3.org/2000/svg" width="24" height="24" fill="none" viewBox="0 0 24 24">
  <path fill="#000" d="m7.4 12 3.54 3.54 5.64-5.66-1.41-1.41-4.24 4.24-2.12-2.12L7.4 12Z"/>
  <path fill="#000" fill-rule="evenodd" d="M12 2c4 0 8 2 8 2v10.09C20 18 15.17 21 12 22c-3.19-1-8-4-8-7.91V4s4-2 8-2Zm3.893 15.613c-1.181 1.004-2.643 1.795-3.895 2.27-1.257-.475-2.718-1.265-3.897-2.27C6.694 16.417 6 15.195 6 14.09V5.31c.323-.128.706-.27 1.132-.413C8.532 4.431 10.302 4 12 4c1.697 0 3.467.43 4.867.897.427.143.81.285 1.133.413v8.78c0 1.101-.696 2.323-2.107 3.523Z" clip-rule="evenodd"/>
</svg>
