<svg xmlns="http://www.w3.org/2000/svg" width="24" height="24" fill="none" viewBox="0 0 24 24">
  <path fill="#000" d="M16 7s-2-1-4-1-4 1-4 1v6.65c0 1.955 2.405 3.45 4 3.95 1.585-.5 4-1.995 4-3.95V7Z"/>
  <path fill="#000" fill-rule="evenodd" d="M20 4s-4-2-8-2-8 2-8 2v10.09C4 18 8.81 21 12 22c3.17-1 8-4 8-7.91V4Zm-4.107 13.613c-1.181 1.004-2.643 1.795-3.895 2.27-1.257-.475-2.718-1.265-3.897-2.27C6.694 16.417 6 15.195 6 14.09V5.31c.323-.128.706-.27 1.132-.413C8.532 4.431 10.302 4 12 4c1.697 0 3.467.43 4.867.897.427.143.81.285 1.133.413v8.78c0 1.101-.696 2.323-2.107 3.523Z" clip-rule="evenodd"/>
</svg>
