<svg xmlns="http://www.w3.org/2000/svg" width="24" height="24" fill="none" viewBox="0 0 24 24">
  <path fill="#000" fill-rule="evenodd" d="M17.782 4H3.032c-.384 0-.675.17-.875.513-.2.341-.209.687-.025 1.037l3.55 6.4c.183.333.429.592.737.775.308.183.646.275 1.013.275h7.45l1.1 2h-12v2h12c.75 0 1.316-.33 1.7-.988.383-.658.4-1.312.05-1.962l-1.35-2.45 3.6-7.6H22V2h-3.268l-.95 2Zm-3.35 7 2.4-5H4.681l2.75 5h7Z" clip-rule="evenodd"/>
  <path fill="#000" d="M15.982 22c.55 0 1.02-.196 1.412-.587.392-.392.588-.863.588-1.413s-.196-1.02-.588-1.413A1.926 1.926 0 0 0 15.982 18a1.93 1.93 0 0 0-1.413.587A1.926 1.926 0 0 0 13.981 20c0 .55.196 1.02.588 1.413.392.391.862.587 1.412.587Zm-10 0c.55 0 1.02-.196 1.412-.587.392-.392.588-.863.588-1.413s-.196-1.02-.588-1.413A1.926 1.926 0 0 0 5.982 18a1.93 1.93 0 0 0-1.413.587A1.926 1.926 0 0 0 3.982 20c0 .55.195 1.02.587 1.413A1.93 1.93 0 0 0 5.982 22Z"/>
</svg>
