<svg xmlns="http://www.w3.org/2000/svg" width="24" height="24" fill="none" viewBox="0 0 24 24">
  <path fill="#000" fill-rule="evenodd" d="M6.218 4h14.75c.384 0 .675.17.875.513.2.341.209.687.026 1.037l-3.55 6.4c-.184.333-.43.592-.738.775a1.946 1.946 0 0 1-1.012.275h-7.45l-1.1 2h12v2h-12c-.75 0-1.317-.33-1.7-.988-.384-.658-.4-1.312-.05-1.962l1.35-2.45-3.6-7.6H2V2h3.268l.95 2Z" clip-rule="evenodd"/>
  <path fill="#000" d="M18.018 22c-.55 0-1.02-.196-1.412-.587A1.926 1.926 0 0 1 16.018 20c0-.55.196-1.02.588-1.413A1.926 1.926 0 0 1 18.018 18c.55 0 1.021.196 1.413.587.392.392.587.863.587 1.413s-.195 1.02-.587 1.413a1.926 1.926 0 0 1-1.413.587Zm-10 0c-.55 0-1.02-.196-1.412-.587A1.926 1.926 0 0 1 6.018 20c0-.55.196-1.02.588-1.413A1.926 1.926 0 0 1 8.018 18c.55 0 1.021.196 1.413.587.392.392.588.863.588 1.413s-.196 1.02-.588 1.413A1.926 1.926 0 0 1 8.018 22Z"/>
</svg>
