<svg xmlns="http://www.w3.org/2000/svg" width="24" height="24" fill="none" viewBox="0 0 24 24">
  <path fill="#000" fill-rule="evenodd" d="M12 3.607a6.9 6.9 0 0 1 6.9 6.9v3.242a2.901 2.901 0 0 1-.9 5.658H6a2.9 2.9 0 0 1-.9-5.658v-3.242a6.9 6.9 0 0 1 6.9-6.9Zm1 3-.218.005A4.9 4.9 0 0 0 8.1 11.507h1.8l.005-.176A3.1 3.1 0 0 1 13 8.407v-1.8ZM6.28 2.46l.078.082.663.791a.9.9 0 0 1-1.3 1.24l-.079-.083-.663-.79a.9.9 0 0 1 1.3-1.24Zm12.63-.029a.9.9 0 0 1 .178 1.177l-.067.091-.663.791a.9.9 0 0 1-1.446-1.066l.067-.09.663-.792a.9.9 0 0 1 1.268-.11ZM12 .101a.9.9 0 0 1 .893.786L12.9 1v1.032a.9.9 0 0 1-1.793.113l-.007-.113V1a.9.9 0 0 1 .9-.9Z" clip-rule="evenodd"/>
</svg>
