<svg xmlns="http://www.w3.org/2000/svg" width="24" height="24" fill="none" viewBox="0 0 24 24">
  <path fill="#000" fill-rule="evenodd" d="M12 4a7 7 0 0 1 6.996 6.76L19 11v3.171a3.002 3.002 0 0 1 1.994 2.635L21 17v3H3v-3c0-1.306.835-2.418 2-2.83V11a7 7 0 0 1 7-7Zm6 12H6a1 1 0 0 0-.993.883L5 17v1h14v-1a1 1 0 0 0-.77-.974l-.113-.02L18 16ZM12 6a5 5 0 0 0-4.995 4.783L7 11v3h10v-3a5 5 0 0 0-5-5Zm.027 2v2c-.53 0-.965.4-1.021.915l-.006.112V12H9v-.973c0-1.612 1.26-2.93 2.85-3.022L12.026 8h.001ZM6.616 2.567l.5.866a1 1 0 1 1-1.732 1l-.5-.866a1 1 0 1 1 1.732-1Zm12.134-.366a1 1 0 0 1 .366 1.366l-.5.866a1 1 0 0 1-1.732-1l.5-.866a1 1 0 0 1 1.366-.366ZM12 0a1 1 0 0 1 1 1v1a1 1 0 0 1-2 0V1a1 1 0 0 1 1-1Z" clip-rule="evenodd"/>
</svg>
