<svg xmlns="http://www.w3.org/2000/svg" width="24" height="24" fill="none" viewBox="0 0 24 24">
  <path fill="#000" fill-rule="evenodd" d="M8.35 19.475 5.75 20.6 4.675 23 3.6 20.6 1 19.475l2.6-1.125 1.075-2.525L5.75 18.35l2.6 1.125Zm9.6-9.75 5.025 2.25-5.025 2.25-2.3 4.925-2.325-4.925-5-2.25 5-2.25 2.325-4.9 2.3 4.9Zm-2.31-.214.815 1.736 1.626.728-1.628.729-.813 1.74-.821-1.74-1.62-.729 1.618-.728.823-1.736ZM1 4.475 3.6 3.35 4.675.975 5.75 3.35l2.6 1.125-2.6 1.15-1.075 2.5-1.075-2.5L1 4.475Z" clip-rule="evenodd"/>
</svg>
