<svg xmlns="http://www.w3.org/2000/svg" width="24" height="24" fill="none" viewBox="0 0 24 24">
  <path fill="#000" d="M19.5 11.975c0-1.567-.438-2.975-1.313-4.225a7.519 7.519 0 0 0-3.437-2.725.771.771 0 0 1-.425-.4.636.636 0 0 1 0-.55c.083-.2.23-.337.438-.412a.886.886 0 0 1 .637.012 8.85 8.85 0 0 1 4.062 3.275C20.488 8.45 21 10.125 21 11.975c0 1.85-.512 3.525-1.538 5.025a8.85 8.85 0 0 1-4.062 3.275.886.886 0 0 1-.638.013.715.715 0 0 1-.437-.413.636.636 0 0 1 0-.55.772.772 0 0 1 .425-.4 7.519 7.519 0 0 0 3.438-2.725c.875-1.25 1.312-2.658 1.312-4.225ZM7 15H3.75a.728.728 0 0 1-.75-.75v-4.5A.728.728 0 0 1 3.75 9H7l3.725-3.725c.233-.233.504-.287.813-.162.308.125.462.354.462.687v12.4c0 .333-.154.563-.463.688-.308.124-.579.07-.812-.163L7 15Zm9.5-3c0 .867-.217 1.65-.65 2.35-.433.7-1.042 1.233-1.825 1.6-.133.067-.254.058-.363-.025a.391.391 0 0 1-.162-.325V8.375c0-.133.054-.242.162-.325.109-.083.23-.092.363-.025A4.12 4.12 0 0 1 15.85 9.65c.433.717.65 1.5.65 2.35Z"/>
</svg>
