<svg xmlns="http://www.w3.org/2000/svg" width="24" height="24" fill="none" viewBox="0 0 24 24">
  <path fill="#000" d="M5.75 15H9l3.725 3.725c.233.233.504.287.813.162.308-.125.462-.354.462-.687V5.8c0-.334-.154-.563-.463-.688-.308-.125-.579-.07-.812.163L9 9H5.75a.729.729 0 0 0-.75.75v4.5a.729.729 0 0 0 .75.75Zm11.543 1.842a.96.96 0 0 0 .706.294.966.966 0 0 0 .707-.293.96.96 0 0 0 .294-.706.966.966 0 0 0-.293-.707.96.96 0 0 0-.706-.294.966.966 0 0 0-.707.293.96.96 0 0 0-.294.705c0 .276.098.512.293.708Zm0-3.428a.96.96 0 0 0 .706.293.965.965 0 0 0 .707-.293.962.962 0 0 0 .294-.707V7.85a.964.964 0 0 0-.293-.706.96.96 0 0 0-.706-.294.965.965 0 0 0-.707.294.962.962 0 0 0-.294.706v4.857c0 .275.098.51.293.707Z"/>
</svg>
