<svg xmlns="http://www.w3.org/2000/svg" width="24" height="24" fill="none" viewBox="0 0 24 24">
  <path fill="#000" d="M18.1 13.075 15.8 15.4a.72.72 0 0 1-.525.225.72.72 0 0 1-.525-.225.733.733 0 0 1-.225-.537c0-.209.075-.388.225-.538l2.3-2.3-2.325-2.3A.72.72 0 0 1 14.5 9.2c0-.2.075-.375.225-.525.15-.15.33-.225.537-.225.209 0 .388.075.538.225l2.3 2.3 2.3-2.325a.72.72 0 0 1 .525-.225c.2 0 .375.075.525.225.15.15.225.33.225.538a.734.734 0 0 1-.225.537l-2.3 2.3 2.325 2.3a.72.72 0 0 1 .225.525.72.72 0 0 1-.225.525.734.734 0 0 1-.538.225.734.734 0 0 1-.537-.225l-2.3-2.3ZM7 15H3.75a.728.728 0 0 1-.75-.75v-4.5A.728.728 0 0 1 3.75 9H7l3.725-3.725c.233-.233.504-.287.813-.162.308.125.462.354.462.687v12.4c0 .333-.154.563-.463.688-.308.124-.579.07-.812-.163L7 15Z"/>
</svg>
