<svg width="24" height="24" viewBox="0 0 24 24" fill="none" xmlns="http://www.w3.org/2000/svg">
<path fill-rule="evenodd" clip-rule="evenodd" d="M5 9.24994C5 7.17887 6.67893 5.49994 8.75 5.49994H14V7.49994H8.75C7.7835 7.49994 7 8.28344 7 9.24994C7 10.2164 7.7835 10.9999 8.75 10.9999H15.25C17.3211 10.9999 19 12.6789 19 14.7499C19 16.6811 17.4586 18.4999 15.25 18.4999H10V16.4999H15.25C16.2165 16.4999 17 15.7164 17 14.7499C17 13.7834 16.2165 12.9999 15.25 12.9999H8.75C6.54137 12.9999 5 11.1811 5 9.24994Z" fill="black"/>
<path fill-rule="evenodd" clip-rule="evenodd" d="M19.5 6.49994C19.5 7.46644 18.7165 8.24994 17.75 8.24994C16.7835 8.24994 16 7.46644 16 6.49994C16 5.53344 16.7835 4.74994 17.75 4.74994C18.7165 4.74994 19.5 5.53344 19.5 6.49994Z" fill="black"/>
<path fill-rule="evenodd" clip-rule="evenodd" d="M8 17.4999C8 18.4664 7.2165 19.2499 6.25 19.2499C5.2835 19.2499 4.5 18.4664 4.5 17.4999C4.5 16.5334 5.2835 15.7499 6.25 15.7499C7.2165 15.7499 8 16.5334 8 17.4999Z" fill="black"/>
</svg>
