<svg xmlns="http://www.w3.org/2000/svg" width="24" height="24" fill="none" viewBox="0 0 24 24">
  <path fill="#000" d="M17.068 12.388a.989.989 0 0 1-.353-.066.717.717 0 0 1-.302-.221L11.9 7.587a.713.713 0 0 1-.22-.307 1.03 1.03 0 0 1-.067-.359c0-.124.022-.242.066-.356.044-.113.118-.224.22-.33l4.515-4.509a.93.93 0 0 1 .306-.214.846.846 0 0 1 .712 0c.115.053.227.124.335.214l4.508 4.508c.09.108.161.22.214.338a.855.855 0 0 1 0 .713.94.94 0 0 1-.214.302L17.766 12.1a.99.99 0 0 1-.338.22 1.014 1.014 0 0 1-.36.067Zm-13.98-1.56a.936.936 0 0 1-.966-.954V3.503a.936.936 0 0 1 .966-.954h6.359a.93.93 0 0 1 .686.275c.182.183.274.41.274.679v6.37c0 .27-.092.497-.274.68a.929.929 0 0 1-.686.275h-6.36Zm11.057 11.05a.935.935 0 0 1-.954-.966v-6.34a.93.93 0 0 1 .275-.686.924.924 0 0 1 .68-.273h6.351c.27 0 .496.09.68.273a.928.928 0 0 1 .274.686v6.34a.935.935 0 0 1-.954.966h-6.352Zm-11.057 0a.938.938 0 0 1-.693-.273.938.938 0 0 1-.273-.692v-6.36a.938.938 0 0 1 .966-.96h6.359c.275 0 .503.092.686.274a.931.931 0 0 1 .274.686v6.36a.938.938 0 0 1-.96.965h-6.36ZM4.06 8.895h4.408V4.481H4.06v4.414Zm13.089 1.237L20.285 7 17.15 3.859 14.019 7l3.13 3.13Zm-2.025 9.808h4.394v-4.39h-4.394v4.389Zm-11.064 0h4.408v-4.408H4.06v4.408Z"/>
</svg>
