<svg xmlns="http://www.w3.org/2000/svg" width="24" height="24" fill="none" viewBox="0 0 24 24">
  <path fill="#000" d="M20.743 5.781 14.165 2.51a4.86 4.86 0 0 0-4.33 0L3.259 5.78a2.262 2.262 0 0 0 0 4.053l6.578 3.273a4.86 4.86 0 0 0 4.33 0l6.577-3.273a2.263 2.263 0 0 0 0-4.053Z"/>
  <path fill="#000" d="M21.677 10.831c-.11.072-.225.137-.342.196L14.759 14.3a6.191 6.191 0 0 1-5.518 0l-6.576-3.273a3.665 3.665 0 0 1-.342-.196 2.268 2.268 0 0 0 .935 3.196l6.578 3.271c1.363.68 2.965.68 4.328 0l6.578-3.271a2.266 2.266 0 0 0 .935-3.196Z"/>
  <path fill="#000" d="M21.335 15.22c.118-.057.232-.122.342-.195a2.266 2.266 0 0 1-.935 3.193l-6.578 3.274a4.86 4.86 0 0 1-4.328 0l-6.578-3.274a2.265 2.265 0 0 1-.936-3.193c.11.073.224.138.343.195l6.576 3.274a6.21 6.21 0 0 0 5.518 0l6.576-3.274Z"/>
</svg>
