<svg xmlns="http://www.w3.org/2000/svg" width="24" height="24" fill="none" viewBox="0 0 24 24">
  <path fill="#000" fill-rule="evenodd" d="m12.002 14.934 3.151 1.906-.834-3.581 2.789-2.417-3.669-.311L12 7.132l-1.439 3.389-3.667.311 2.789 2.417-.836 3.586 3.156-1.901ZM17.64 18.7c.2.86-.73 1.54-1.49 1.08L12 17.27l-4.15 2.5c-.76.46-1.69-.22-1.49-1.08l1.1-4.72-3.67-3.18c-.67-.58-.31-1.68.57-1.75l4.83-.41 1.89-4.45c.34-.81 1.5-.81 1.84 0l1.89 4.46 4.83.41c.88.07 1.24 1.17.57 1.75l-3.67 3.18 1.1 4.72Z" clip-rule="evenodd"/>
</svg>
