<svg xmlns="http://www.w3.org/2000/svg" width="24" height="24" fill="none" viewBox="0 0 24 24">
  <path fill="#000" fill-rule="evenodd" d="M12 2c5.523 0 10 4.477 10 10s-4.477 10-10 10S2 17.523 2 12 6.477 2 12 2Zm3 9H9v3.171a3.001 3.001 0 0 1 1.995 2.653L11 17v2.938a8.08 8.08 0 0 0 2.001 0L13 17c0-1.306.835-2.418 2-2.83V11Zm-7 5-2.93.001A8.03 8.03 0 0 0 9 19.418V17a1 1 0 0 0-.883-.993L8 16Zm8 0a1 1 0 0 0-.993.883L15 17l.001 2.418a8.028 8.028 0 0 0 3.766-3.15l.162-.267L16 16Zm-9-5H4.062c-.03.247-.05.497-.058.75L4 12c0 .69.088 1.361.252 2H7v-3Zm12.938 0H17v3h2.748a8.02 8.02 0 0 0 .248-1.75L20 12c0-.226-.01-.45-.028-.67l-.034-.33ZM12 12a1 1 0 1 1 0 2 1 1 0 0 1 0-2Zm0-8a8.003 8.003 0 0 0-7.418 5h14.836A8.003 8.003 0 0 0 12 4Z" clip-rule="evenodd"/>
</svg>
