<svg xmlns="http://www.w3.org/2000/svg" width="24" height="24" fill="none" viewBox="0 0 24 24">
  <path fill="#000" d="M20.958 11.05V19c0 .55-.195 1.02-.585 1.413-.39.391-.858.587-1.406.587H5.033a1.912 1.912 0 0 1-1.406-.587A1.93 1.93 0 0 1 3.042 19v-7.95c-.381-.35-.676-.8-.883-1.35-.208-.55-.212-1.15-.013-1.8l1.045-3.4a2.21 2.21 0 0 1 .71-1.075A1.79 1.79 0 0 1 5.082 3h13.835c.448 0 .838.138 1.17.413.332.275.572.637.722 1.087l1.045 3.4c.199.65.195 1.242-.013 1.775a3.954 3.954 0 0 1-.883 1.375ZM14.19 10c.448 0 .788-.154 1.02-.463a1.37 1.37 0 0 0 .274-1.037L14.936 5h-1.94v3.7c0 .35.115.654.348.913.232.258.514.387.846.387Zm-4.48 0c.382 0 .693-.13.934-.387a1.3 1.3 0 0 0 .36-.913V5h-1.94l-.548 3.5c-.066.4.021.75.262 1.05.24.3.551.45.933.45Zm-4.428 0c.298 0 .56-.108.783-.325a1.4 1.4 0 0 0 .41-.825L7.024 5h-1.94l-.996 3.35c-.1.333-.045.692.162 1.075.207.383.551.575 1.033.575Zm13.436 0c.482 0 .83-.192 1.046-.575.215-.383.265-.742.149-1.075L18.868 5h-1.891l.547 3.85a1.4 1.4 0 0 0 .41.825c.225.217.486.325.784.325Z"/>
</svg>
