<svg xmlns="http://www.w3.org/2000/svg" width="24" height="24" fill="none" viewBox="0 0 24 24">
  <path fill="#000" d="M12 17c-1.383 0-2.563-.488-3.537-1.463C7.488 14.563 7 13.383 7 12s.487-2.563 1.463-3.537C9.438 7.488 10.617 7 12 7s2.563.487 3.537 1.463C16.512 9.438 17 10.617 17 12s-.488 2.563-1.463 3.537C14.563 16.512 13.383 17 12 17ZM2 13a.967.967 0 0 1-.712-.287A.968.968 0 0 1 1 12a.97.97 0 0 1 .288-.713A.967.967 0 0 1 2 11h2c.283 0 .52.096.713.287.191.192.287.43.287.713s-.096.52-.287.713A.967.967 0 0 1 4 13H2Zm18 0a.968.968 0 0 1-.712-.287A.968.968 0 0 1 19 12a.97.97 0 0 1 .288-.713A.968.968 0 0 1 20 11h2a.97.97 0 0 1 .712.287c.192.192.288.43.288.713s-.096.52-.288.713A.968.968 0 0 1 22 13h-2Zm-8-8a.968.968 0 0 1-.713-.287A.967.967 0 0 1 11 4V2a.97.97 0 0 1 .287-.712A.968.968 0 0 1 12 1a.97.97 0 0 1 .713.288A.968.968 0 0 1 13 2v2c0 .283-.096.52-.287.713A.968.968 0 0 1 12 5Zm0 18a.968.968 0 0 1-.713-.288A.968.968 0 0 1 11 22v-2a.97.97 0 0 1 .287-.712A.968.968 0 0 1 12 19a.97.97 0 0 1 .713.288A.968.968 0 0 1 13 20v2a.97.97 0 0 1-.287.712A.968.968 0 0 1 12 23ZM5.65 7.05 4.575 6a.87.87 0 0 1-.288-.7 1.09 1.09 0 0 1 .288-.725c.2-.2.442-.3.725-.3s.517.1.7.3L7.05 5.65c.183.2.275.433.275.7 0 .267-.092.5-.275.7a.856.856 0 0 1-.688.288 1.07 1.07 0 0 1-.712-.288ZM18 19.425l-1.05-1.075a1.019 1.019 0 0 1-.275-.713c0-.274.092-.504.275-.687a.856.856 0 0 1 .688-.287c.274.008.512.104.712.287L19.425 18a.87.87 0 0 1 .287.7 1.085 1.085 0 0 1-.287.725c-.2.2-.442.3-.725.3a.908.908 0 0 1-.7-.3ZM16.95 7.05a.856.856 0 0 1-.287-.688 1.07 1.07 0 0 1 .287-.712L18 4.575a.87.87 0 0 1 .7-.288c.283.009.525.105.725.288.2.2.3.442.3.725s-.1.517-.3.7L18.35 7.05c-.2.183-.433.275-.7.275-.267 0-.5-.092-.7-.275ZM4.575 19.425c-.2-.2-.3-.442-.3-.725s.1-.517.3-.7l1.075-1.05c.2-.183.438-.275.712-.275.276 0 .505.092.688.275.2.183.296.413.288.688a1.07 1.07 0 0 1-.288.712L6 19.425a.87.87 0 0 1-.7.287 1.085 1.085 0 0 1-.725-.287Z"/>
</svg>
