<svg xmlns="http://www.w3.org/2000/svg" width="24" height="24" fill="none" viewBox="0 0 24 24">
  <path fill="#000" d="M16.537 11.959c-1.374 0-2.462 1.078-2.462 2.379v1.383a1.5 1.5 0 0 1-.458 1.078 1.61 1.61 0 0 1-1.117.443c-.43 0-.83-.166-1.117-.443a1.5 1.5 0 0 1-.458-1.078V4.379C10.925 3.051 9.808 2 8.463 2 7.088 2 6 3.079 6 4.379v11.342c0 1.715.744 3.291 1.918 4.426A6.561 6.561 0 0 0 12.5 22c1.775 0 3.407-.72 4.581-1.853C18.255 19.013 19 17.463 19 15.72v-1.383c0-1.328-1.117-2.38-2.463-2.38Z"/>
  <path fill="url(#a)" d="M17.869 8.406c-.21.531-.71.942-1.473.942-1.604 0-3.944.024-4.102 1.98-.052.603-.315 1.207-.946 1.496-.312.156-.716.203-1.112.162a2.72 2.72 0 0 1-.86-.234 2.22 2.22 0 0 1-1.21-1.376c-.262-.773-.184-1.69.027-2.463.33-1.188 1.082-1.896 2.043-2.316 1.714-.75 4.096-.58 5.95-.58.894 0 1.446.458 1.683 1.013a2.1 2.1 0 0 1 .131.7c0 .218-.053.459-.131.676Z"/>
  <defs>
    <linearGradient id="a" x1="7.991" x2="18.014" y1="9.498" y2="9.498" gradientUnits="userSpaceOnUse">
      <stop offset=".104" stop-color="#222" stop-opacity=".5"/>
      <stop offset=".277" stop-color="#222" stop-opacity=".6"/>
      <stop offset="1" stop-color="#222"/>
    </linearGradient>
  </defs>
</svg>
