<svg xmlns="http://www.w3.org/2000/svg" width="24" height="24" fill="none" viewBox="0 0 24 24">
  <path fill="#000" fill-rule="evenodd" d="m2.808 4.222 1.414-1.414 16.97 16.97-1.414 1.414-2.873-2.872a7.96 7.96 0 0 1-3.904 1.618L13 22h-2v-2.062a8.004 8.004 0 0 1-6.938-6.937L2 13v-2h2.062A7.96 7.96 0 0 1 5.68 7.094L2.808 4.222ZM6 12a6 6 0 0 0 9.476 4.89L7.11 8.525A5.973 5.973 0 0 0 6 12Zm7-10 .001 2.062A8.004 8.004 0 0 1 19.938 11H22v2h-2.062a7.946 7.946 0 0 1-.57 2.124l-1.571-1.57a6 6 0 0 0-7.35-7.35l-1.572-1.57A7.946 7.946 0 0 1 11 4.061V2h2Z" clip-rule="evenodd"/>
</svg>
