<svg xmlns="http://www.w3.org/2000/svg" width="24" height="24" fill="none" viewBox="0 0 24 24">
  <path fill="#000" fill-rule="evenodd" d="M7 1c.365 0 .707.098 1.001.268.244-.142.522-.233.819-.26L9 1h10a2 2 0 0 1 1.995 1.85L21 3v14a2 2 0 0 1-1.85 1.995L19 19h-7v.5a3.5 3.5 0 0 1-3.308 3.495L8.5 23a3.5 3.5 0 0 1-3.495-3.308L5 19.5V19a2 2 0 0 1-1.995-1.85L3 17V3a2 2 0 0 1 1.85-1.995L5 1h2Zm3 18H7v.5a1.5 1.5 0 0 0 1.215 1.473l.14.02L8.5 21a1.5 1.5 0 0 0 1.493-1.356L10 19.5V19Zm9-16H9v14h10V3ZM7 3H5v14h2V3Zm6 10v2h-2v-2h2Zm4 0v2h-2v-2h2Zm-4-4v2h-2V9h2Zm4 0v2h-2V9h2Zm0-4v2h-6V5h6Z" clip-rule="evenodd"/>
</svg>
