<svg xmlns="http://www.w3.org/2000/svg" width="24" height="24" fill="none" viewBox="0 0 24 24">
  <path fill="#000" fill-rule="evenodd" d="M8.001 1.268A1.994 1.994 0 0 0 7 1H5l-.15.005A2 2 0 0 0 3 3v14l.005.15A2 2 0 0 0 5 19v.5l.005.192A3.5 3.5 0 0 0 8.5 23l.192-.005A3.5 3.5 0 0 0 12 19.5V19h7l.15-.005A2 2 0 0 0 21 17V3l-.005-.15A2 2 0 0 0 19 1H9l-.18.008a1.982 1.982 0 0 0-.819.26ZM10 19H7v.5a1.5 1.5 0 0 0 1.215 1.473l.14.02L8.5 21a1.5 1.5 0 0 0 1.493-1.356L10 19.5V19ZM7 3H5v14h2V3Zm10 4V5h-6v2h6Zm0 2v2h-2V9h2Zm-4 2V9h-2v2h2Zm0 2v2h-2v-2h2Zm4 2v-2h-2v2h2Z" clip-rule="evenodd"/>
</svg>
