<svg width="24" height="24" viewBox="0 0 24 24" fill="none" xmlns="http://www.w3.org/2000/svg">
<path d="M7.28571 3.85999L15.8571 3.85999L15.8571 15.0028L9.85714 21.0028L8.78572 19.9314C8.68572 19.8314 8.60357 19.6957 8.53929 19.5243C8.475 19.3528 8.44286 19.1886 8.44286 19.0314V18.7314L9.38571 15.0028H4.71429C4.25714 15.0028 3.85714 14.8314 3.51429 14.4886C3.17143 14.1457 3 13.7457 3 13.2886L3 11.5743C3 11.4743 3.01071 11.3671 3.03214 11.2528C3.05357 11.1386 3.08571 11.0314 3.12857 10.9314L5.7 4.88856C5.82857 4.60284 6.04286 4.35999 6.34286 4.15999C6.64286 3.95999 6.95714 3.85999 7.28571 3.85999Z" fill="black"/>
<path d="M17.5714 15.0028L17.5714 3.85999L21 3.85999L21 15.0028L17.5714 15.0028Z" fill="black"/>
</svg>
