<svg xmlns="http://www.w3.org/2000/svg" width="24" height="24" fill="none" viewBox="0 0 24 24">
  <path fill="#000" d="M2.698 13.92a3 3 0 0 0 2.3 1.08h4.56l-.56 1.43a4.13 4.13 0 0 0 3.89 5.57 1 1 0 0 0 .91-.59l2.85-6.41h2.35a3 3 0 0 0 3-3V5a3 3 0 0 0-3-3H6.268a3 3 0 0 0-2.95 2.46l-1.27 7a3 3 0 0 0 .65 2.46ZM16.998 4h2a1 1 0 0 1 1 1v7a1 1 0 0 1-1 1h-2V4Zm-13 7.82 1.27-7a1 1 0 0 1 1-.82h8.73v9.79l-2.72 6.12a2.111 2.111 0 0 1-1.38-2.78l.53-1.43a2.001 2.001 0 0 0-1.87-2.7h-4.56a1 1 0 0 1-.77-.36 1 1 0 0 1-.23-.82Z"/>
</svg>
