<svg xmlns="http://www.w3.org/2000/svg" width="24" height="24" fill="none" viewBox="0 0 24 24">
  <path fill="#000" d="M2.698 10.08A3 3 0 0 1 4.998 9h4.56l-.56-1.43A4.13 4.13 0 0 1 12.888 2a1 1 0 0 1 .91.59L16.648 9h2.35a3 3 0 0 1 3 3v7a3 3 0 0 1-3 3H6.268a3 3 0 0 1-2.95-2.46l-1.27-7a3 3 0 0 1 .65-2.46Zm14.3 9.92h2a1 1 0 0 0 1-1v-7a1 1 0 0 0-1-1h-2v9Zm-13-7.82 1.27 7a1 1 0 0 0 1 .82h8.73v-9.79l-2.72-6.12a2.11 2.11 0 0 0-1.38 2.78l.53 1.43a2 2 0 0 1-1.87 2.7h-4.56a1 1 0 0 0-.77.36 1 1 0 0 0-.23.82Z"/>
</svg>
