<svg xmlns="http://www.w3.org/2000/svg" width="24" height="24" fill="none" viewBox="0 0 24 24">
  <path fill="#000" fill-rule="evenodd" d="m13.194 1 .18.004c.35.046.61.308.64.618l-.005.159-1.235 7.916h5.477a.81.81 0 0 1 .256.042l.119.051c.307.163.44.495.342.794l-.069.145-7.518 11.928a.772.772 0 0 1-.755.336c-.35-.046-.61-.308-.64-.619l.005-.158 1.233-7.918H5.749a.808.808 0 0 1-.256-.04l-.119-.052a.663.663 0 0 1-.342-.793l.069-.145L12.619 1.34a.757.757 0 0 1 .575-.34Z" clip-rule="evenodd"/>
</svg>
