<svg xmlns="http://www.w3.org/2000/svg" width="24" height="24" fill="none" viewBox="0 0 24 24">
  <path fill="#000" d="M9 3V1h6v2H9Zm2 11h2V8h-2v6Zm1 8a8.646 8.646 0 0 1-3.488-.712A9.192 9.192 0 0 1 5.65 19.35a9.193 9.193 0 0 1-1.938-2.863A8.646 8.646 0 0 1 3 13a8.65 8.65 0 0 1 .712-3.488A9.193 9.193 0 0 1 5.65 6.65a9.193 9.193 0 0 1 2.862-1.938A8.646 8.646 0 0 1 12 4a8.92 8.92 0 0 1 2.975.5c.95.333 1.842.817 2.675 1.45l1.4-1.4 1.4 1.4-1.4 1.4a9.723 9.723 0 0 1 1.45 2.675c.333.95.5 1.942.5 2.975a8.646 8.646 0 0 1-.712 3.488 9.192 9.192 0 0 1-1.938 2.862 9.192 9.192 0 0 1-2.863 1.938A8.646 8.646 0 0 1 12 22Z"/>
</svg>
