<svg xmlns="http://www.w3.org/2000/svg" width="24" height="24" fill="none" viewBox="0 0 24 24">
  <path fill="#000" d="M12 18c.433 0 .792-.142 1.075-.425.283-.283.425-.642.425-1.075 0-.433-.142-.792-.425-1.075C12.792 15.142 12.433 15 12 15c-.433 0-.792.142-1.075.425-.283.283-.425.642-.425 1.075 0 .433.142.792.425 1.075.283.283.642.425 1.075.425Zm0-4.5c.433 0 .792-.142 1.075-.425.283-.283.425-.642.425-1.075 0-.433-.142-.792-.425-1.075-.283-.283-.642-.425-1.075-.425-.433 0-.792.142-1.075.425-.283.283-.425.642-.425 1.075 0 .433.142.792.425 1.075.283.283.642.425 1.075.425ZM12 9c.433 0 .792-.142 1.075-.425.283-.283.425-.642.425-1.075 0-.433-.142-.792-.425-1.075C12.792 6.142 12.433 6 12 6c-.433 0-.792.142-1.075.425-.283.283-.425.642-.425 1.075 0 .433.142.792.425 1.075.283.283.642.425 1.075.425Zm-5 6v-1.15a4.123 4.123 0 0 1-2.138-1.4C4.287 11.75 4 10.933 4 10h3V8.85a4.124 4.124 0 0 1-2.138-1.4C4.287 6.75 4 5.933 4 5h3c0-.55.196-1.02.588-1.413A1.926 1.926 0 0 1 9 3h6c.55 0 1.02.196 1.413.587.39.393.587.863.587 1.413h3c0 .933-.288 1.75-.863 2.45A4.124 4.124 0 0 1 17 8.85V10h3c0 .933-.288 1.75-.863 2.45A4.123 4.123 0 0 1 17 13.85V15h3c0 .933-.288 1.75-.863 2.45A4.123 4.123 0 0 1 17 18.85V19c0 .55-.196 1.02-.587 1.413A1.926 1.926 0 0 1 15 21H9c-.55 0-1.02-.196-1.412-.587A1.926 1.926 0 0 1 7 19v-.15a4.123 4.123 0 0 1-2.138-1.4C4.287 16.75 4 15.933 4 15h3Z"/>
</svg>
