<svg xmlns="http://www.w3.org/2000/svg" width="24" height="24" fill="none" viewBox="0 0 24 24">
  <path fill="#000" d="M12 18c.433 0 .791-.142 1.075-.425.283-.283.425-.642.425-1.075 0-.433-.142-.792-.425-1.075C12.79 15.142 12.433 15 12 15c-.434 0-.792.142-1.075.425-.284.283-.425.642-.425 1.075 0 .433.142.792.425 1.075.283.283.641.425 1.075.425Zm0-4.5c.433 0 .791-.142 1.075-.425.283-.283.425-.642.425-1.075 0-.433-.142-.792-.425-1.075-.284-.283-.642-.425-1.075-.425-.434 0-.792.142-1.075.425-.284.283-.425.642-.425 1.075 0 .433.142.792.425 1.075.283.283.641.425 1.075.425ZM12 9c.433 0 .791-.142 1.075-.425.283-.283.425-.642.425-1.075 0-.433-.142-.792-.425-1.075C12.79 6.142 12.433 6 12 6c-.434 0-.792.142-1.075.425-.284.283-.425.642-.425 1.075 0 .433.142.792.425 1.075.283.283.641.425 1.075.425ZM9 21a1.93 1.93 0 0 1-1.413-.587A1.926 1.926 0 0 1 7 19v-.15a4.01 4.01 0 0 1-1.938-1.175A3.933 3.933 0 0 1 4.05 15.6a.458.458 0 0 1 .112-.425A.568.568 0 0 1 4.6 15H7v-1.15a4.01 4.01 0 0 1-1.938-1.175A3.933 3.933 0 0 1 4.05 10.6a.458.458 0 0 1 .112-.425A.568.568 0 0 1 4.6 10H7V8.85a4.009 4.009 0 0 1-1.938-1.175A3.933 3.933 0 0 1 4.05 5.6a.458.458 0 0 1 .112-.425A.568.568 0 0 1 4.6 5H7c0-.55.196-1.02.587-1.413A1.926 1.926 0 0 1 9 3h6c.55 0 1.02.196 1.412.587C16.804 3.98 17 4.45 17 5h2.4c.183 0 .329.058.437.175a.458.458 0 0 1 .113.425 3.927 3.927 0 0 1-1.013 2.075A4.009 4.009 0 0 1 17 8.85V10h2.4c.183 0 .329.058.437.175a.458.458 0 0 1 .113.425 3.927 3.927 0 0 1-1.013 2.075A4.01 4.01 0 0 1 17 13.85V15h2.4c.183 0 .329.058.437.175a.458.458 0 0 1 .113.425 3.927 3.927 0 0 1-1.013 2.075A4.01 4.01 0 0 1 17 18.85V19c0 .55-.196 1.02-.588 1.413A1.926 1.926 0 0 1 15 21H9Zm0-2h6V5H9v14Z"/>
</svg>
