<svg xmlns="http://www.w3.org/2000/svg" width="24" height="24" fill="none" viewBox="0 0 24 24">
  <path fill="#000" fill-rule="evenodd" d="M10.502 4.406a2.91 2.91 0 0 1 3.758.69l.109.147 7.123 10.272A2.85 2.85 0 0 1 22 17.136c0 1.525-1.204 2.772-2.721 2.86l-.17.004H4.89a2.91 2.91 0 0 1-1.632-.5 2.847 2.847 0 0 1-.852-3.828l.098-.153L9.6 5.247a2.87 2.87 0 0 1 .578-.617l.172-.126.153-.098Zm2.387 1.843a1.103 1.103 0 0 0-1.726-.104l-.083.106-7.094 10.272a1.08 1.08 0 0 0 .286 1.51c.146.099.313.16.488.182l.131.008H19.11c.606 0 1.096-.487 1.096-1.087 0-.175-.042-.348-.124-.502l-.068-.113L12.889 6.25Zm-1.917 8.614h1.994v1.975h-1.994v-1.975Zm0-6.42h1.994v4.445h-1.994V8.444Z" clip-rule="evenodd"/>
</svg>
