<svg xmlns="http://www.w3.org/2000/svg" width="24" height="24" fill="none" viewBox="0 0 24 24">
  <path fill="#000" fill-rule="evenodd" d="M13 22v-3h-2v3h2Zm-5-2v-3H6v3h2Zm10 0v-3h-2v3h2ZM15.692 3.367a5.668 5.668 0 0 0-9.295 3.441C3.756 7.663 2 9.145 2 11c0 2.983 4.538 5 10 5s10-2.017 10-5c0-1.855-1.756-3.337-4.397-4.192a5.668 5.668 0 0 0-1.911-3.441Zm1.642 5.641.077-.148c-.223-.398-.885-1.193-1.744-1.193C15.67 8.398 14.29 9 12 9c-2.304 0-3.672-.594-3.667-1.326-.934.14-1.556.85-1.75 1.189C7.275 10.327 9.34 11 12 11c2.55 0 4.568-.632 5.334-1.992Z" clip-rule="evenodd"/>
</svg>
