<svg xmlns="http://www.w3.org/2000/svg" width="24" height="24" fill="none" viewBox="0 0 24 24">
  <path fill="#000" fill-rule="evenodd" d="M13 19v3h-2v-3h2Zm-5-2v3H6v-3h2Zm10 0v3h-2v-3h2ZM12 2a5.668 5.668 0 0 1 5.603 4.808C20.244 7.663 22 9.145 22 11c0 2.983-4.538 5-10 5S2 13.983 2 11c0-1.855 1.756-3.337 4.397-4.192A5.67 5.67 0 0 1 12 2Zm5.411 6.86-.077.148C16.568 10.368 14.55 11 12 11c-2.66 0-4.725-.673-5.417-2.137C4.988 9.443 4 10.24 4 11c0 1.435 3.52 3 8 3s8-1.565 8-3c0-.761-.99-1.559-2.589-2.14ZM12 4a3.668 3.668 0 0 0-3.667 3.674C8.328 8.406 9.696 9 12 9c2.29 0 3.67-.602 3.667-1.333A3.667 3.667 0 0 0 12 4Z" clip-rule="evenodd"/>
</svg>
