<svg xmlns="http://www.w3.org/2000/svg" width="24" height="24" fill="none" viewBox="0 0 24 24">
  <path fill="#000" fill-rule="evenodd" d="M3.5 23c-.55 0-1.02-.196-1.413-.587A1.926 1.926 0 0 1 1.5 21V11c0-.55.196-1.02.587-1.412A1.926 1.926 0 0 1 3.5 9h9V6c0-1.383.488-2.563 1.463-3.538C14.938 1.487 16.117 1 17.5 1s2.563.488 3.538 1.462c.732.733 1.19 1.58 1.372 2.544.102.542-.358.994-.91.994s-.978-.46-1.154-.984a2.919 2.919 0 0 0-.721-1.141A2.893 2.893 0 0 0 17.5 3c-.833 0-1.542.292-2.125.875A2.893 2.893 0 0 0 14.5 6v3h1c.55 0 1.02.196 1.413.588.391.391.587.862.587 1.412v10c0 .55-.196 1.02-.587 1.413A1.926 1.926 0 0 1 15.5 23h-12Zm12-2h-12V11h12v10Z" clip-rule="evenodd"/>
  <path fill="#000" d="M9.5 18c.55 0 1.02-.196 1.412-.587.392-.392.588-.863.588-1.413s-.196-1.02-.588-1.412A1.926 1.926 0 0 0 9.5 14c-.55 0-1.02.196-1.412.588A1.926 1.926 0 0 0 7.5 16c0 .55.196 1.02.588 1.413.391.391.862.587 1.412.587Z"/>
</svg>
