<svg xmlns="http://www.w3.org/2000/svg" width="24" height="24" fill="none" viewBox="0 0 24 24">
  <path fill="#000" fill-rule="evenodd" d="M2.087 22.413A1.93 1.93 0 0 0 3.5 23h12c.55 0 1.02-.196 1.413-.587A1.93 1.93 0 0 0 17.5 21V11c0-.55-.196-1.02-.587-1.412A1.926 1.926 0 0 0 15.5 9h-1V6c0-.833.292-1.542.875-2.125A2.893 2.893 0 0 1 17.5 3c.833 0 1.542.292 2.125.875.338.338.579.719.72 1.141.177.524.603.984 1.155.984s1.012-.452.91-.994c-.183-.963-.64-1.811-1.372-2.544C20.062 1.487 18.883 1 17.5 1s-2.563.488-3.537 1.462C12.988 3.438 12.5 4.617 12.5 6v3h-9c-.55 0-1.02.196-1.413.588A1.926 1.926 0 0 0 1.5 11v10c0 .55.196 1.02.587 1.413Zm8.825-5A1.926 1.926 0 0 1 9.5 18c-.55 0-1.02-.196-1.412-.587A1.926 1.926 0 0 1 7.5 16c0-.55.196-1.02.588-1.412A1.926 1.926 0 0 1 9.5 14c.55 0 1.02.196 1.412.588.392.391.588.862.588 1.412 0 .55-.196 1.02-.588 1.413Z" clip-rule="evenodd"/>
</svg>
