<svg xmlns="http://www.w3.org/2000/svg" width="24" height="24" fill="none" viewBox="0 0 24 24">
  <path fill="#000" d="M12 13.071c.412 0 .766.14 1.06.42.293.28.44.616.44 1.009 0 .393-.147.73-.44 1.009-.294.28-.648.42-1.06.42-.412 0-.766-.14-1.06-.42a1.344 1.344 0 0 1-.44-1.009c0-.393.147-.73.44-1.009.294-.28.648-.42 1.06-.42Z"/>
  <path fill="#000" fill-rule="evenodd" d="M17.348 4.313c1.026 0 1.9.366 2.624 1.097.543.55.882 1.185 1.017 1.907.076.407-.265.746-.675.746-.41 0-.725-.344-.856-.737a2.193 2.193 0 0 0-.534-.856 2.134 2.134 0 0 0-1.576-.657c-.618 0-1.144.22-1.576.657a2.18 2.18 0 0 0-.65 1.593V9.5H16.5c.413 0 .766.14 1.06.42.293.28.44.616.44 1.009v7.142c0 .393-.147.73-.44 1.01a1.485 1.485 0 0 1-1.06.419h-9c-.412 0-.766-.14-1.06-.42A1.344 1.344 0 0 1 6 18.071V10.93c0-.393.147-.73.44-1.01a1.485 1.485 0 0 1 1.06-.419h6.139V8.063c0-1.037.361-1.922 1.085-2.653a3.556 3.556 0 0 1 2.624-1.097ZM7.5 18.071h9V10.93h-9v7.142Z" clip-rule="evenodd"/>
</svg>
