<svg xmlns="http://www.w3.org/2000/svg" width="24" height="24" fill="none" viewBox="0 0 24 24">
  <path fill="#000" d="m10.44 14.825 6.94-4.465-6.94-4.47v8.935Zm-3.696 4.49c-.517 0-.969-.195-1.354-.586-.386-.39-.578-.84-.578-1.346V3.414c0-.508.192-.959.578-1.35.385-.392.837-.588 1.354-.588h13.969c.508 0 .957.196 1.347.587.39.392.585.843.585 1.351v13.969c0 .507-.195.955-.585 1.346-.39.39-.839.586-1.347.586H6.744Zm0-1.932h13.969V3.414H6.744v13.969Zm-3.432 5.365c-.52 0-.971-.195-1.356-.585-.385-.39-.577-.84-.577-1.348v-15.9h1.933v15.9h15.9v1.933h-15.9Z"/>
</svg>
