<svg xmlns="http://www.w3.org/2000/svg" width="24" height="24" fill="none" viewBox="0 0 24 24">
  <path fill="#000" d="M20 5V3H5l-.176.005a3 3 0 0 0-2.819 2.819L2 6v5.223h2V8.829l.148.048A3 3 0 0 0 5 9h15v10h-6.52v2H20l.15-.006A2 2 0 0 0 22 19V9l-.006-.15A2 2 0 0 0 20 7H5l-.117-.007A1 1 0 0 1 5 5h15Z"/>
  <path fill="#000" d="M15.5 15.5a1.5 1.5 0 1 0 0-3 1.5 1.5 0 0 0 0 3ZM5 17.61v2H0v-5h2v1.587l2.975-2.975 1.414 1.414-2.975 2.975H5Zm1.48 2v-2h5v5h-2l-.001-1.586L6.504 24 5.09 22.586l2.975-2.976H6.479Z"/>
</svg>
