<svg xmlns="http://www.w3.org/2000/svg" width="24" height="24" fill="none" viewBox="0 0 24 24">
  <path fill="#000" fill-rule="evenodd" d="m7.396 14.563-1.854-1.896a9.228 9.228 0 0 1 2.886-1.948C9.53 10.24 10.722 10 12 10s2.469.243 3.573.73a9.206 9.206 0 0 1 2.885 1.978l-1.854 1.854a6.94 6.94 0 0 0-2.083-1.406 6.223 6.223 0 0 0-2.521-.51c-.903 0-1.743.17-2.52.51-.779.34-1.473.81-2.084 1.406v.001ZM3.854 11.02 2 9.167a13.896 13.896 0 0 1 4.48-3.063C8.186 5.368 10.027 5 12 5c1.972 0 3.813.368 5.52 1.104A13.896 13.896 0 0 1 22 9.167l-1.854 1.854a11.923 11.923 0 0 0-3.677-2.48c-1.382-.597-2.872-.895-4.469-.895-1.597 0-3.087.298-4.468.896a11.92 11.92 0 0 0-3.678 2.479v-.001ZM12 19.167l2.938-2.959a4.174 4.174 0 0 0-1.313-.885A4.07 4.07 0 0 0 12 15a4.07 4.07 0 0 0-1.625.322c-.5.216-.938.511-1.313.886L12 19.167Z" clip-rule="evenodd"/>
</svg>
