<svg xmlns="http://www.w3.org/2000/svg" width="24" height="24" fill="none" viewBox="0 0 24 24">
  <path fill="#000" fill-rule="evenodd" d="M20.25 10.917a11.766 11.766 0 0 0-3.718-2.511C15.122 7.802 13.612 7.5 12 7.5c-.558 0-1.115.042-1.667.125L8.208 5.5a14.066 14.066 0 0 1 1.865-.375A14.715 14.715 0 0 1 12 5c1.972 0 3.813.368 5.52 1.104A14.233 14.233 0 0 1 22 9.125l-1.75 1.792Zm-3.333 3.291-.605-.604-.604-.604-3-3a9.62 9.62 0 0 1 3.157.854 9.083 9.083 0 0 1 2.593 1.813l-1.541 1.541Zm1.541 6.292-3.894-3.915-1.426-1.434-2.513-2.526a7.263 7.263 0 0 0-1.822.688 6.24 6.24 0 0 0-1.511 1.145l-1.75-1.791c.437-.438.918-.83 1.437-1.167a10.99 10.99 0 0 1 1.646-.875L6.75 8.75c-.57.292-1.1.614-1.593.968-.494.355-.963.754-1.407 1.199L2 9.125c.444-.444.906-.844 1.386-1.198.479-.354.989-.69 1.53-1.01l-1.75-1.75L4.334 4l15.334 15.333-1.21 1.167ZM12 19.167l-2.938-2.959c.376-.375.813-.67 1.313-.885A4.07 4.07 0 0 1 12 15a4.073 4.073 0 0 1 1.625.322c.5.216.938.511 1.313.886l-.374.377L12 19.167Z" clip-rule="evenodd"/>
  <path fill="#000" d="m13.138 15.151 1.426 1.434.374-.377a4.184 4.184 0 0 0-1.8-1.057Z"/>
</svg>
