<svg width="25" height="24" viewBox="0 0 25 24" fill="none" xmlns="http://www.w3.org/2000/svg">
<path fill-rule="evenodd" clip-rule="evenodd" d="M14.7603 5.09648L14.8686 5.24257L21.9919 15.5147C22.3229 15.9919 22.5 16.5572 22.5 17.1362C22.5 18.6613 21.2964 19.908 19.7788 19.9951L19.6089 20H5.39137C4.8088 20 4.23981 19.8257 3.75898 19.4998C2.49183 18.6411 2.13108 16.9604 2.90668 15.6718L3.00522 15.5192L10.0994 5.2471C10.2604 5.01391 10.4552 4.80593 10.6771 4.62968L10.8486 4.50355L11.0025 4.40565C12.2498 3.66573 13.8641 3.96249 14.7603 5.09648ZM13.4662 14.8628H11.4724V16.8378H13.4662V14.8628ZM13.4662 8.44386H11.4724V12.8877H13.4662V8.44386Z" fill="black"/>
</svg>
